<?xml version="1.0" encoding="utf-8"?>
<!-- Generator: Adobe Illustrator 15.1.0, SVG Export Plug-In  -->
<!DOCTYPE svg PUBLIC "-//W3C//DTD SVG 1.1//EN" "http://www.w3.org/Graphics/SVG/1.1/DTD/svg11.dtd" [
	<!ENTITY ns_flows "http://ns.adobe.com/Flows/1.0/">
]>
<svg version="1.1"
	 xmlns="http://www.w3.org/2000/svg" xmlns:xlink="http://www.w3.org/1999/xlink" xmlns:a="http://ns.adobe.com/AdobeSVGViewerExtensions/3.0/"
	 x="0px" y="0px" width="271px" height="72px" viewBox="-0.369 16.935 271 72" enable-background="new -0.369 16.935 271 72"
	 xml:space="preserve">
<defs>
</defs>
<path fill="#141006" d="M241.484,89.41c5.775-21.582-18.576-33.363-37.64-27.371c-5.785,1.988-7.043,5.667-2.81,8.213
	c3.385,2.038,9.882,2.398,14.509,0.809c3.701-1.275,4.506-3.628,1.797-5.258c-2.168-1.304-6.324-1.535-9.285-0.516
	c-2.37,0.814-2.885,2.32-1.15,3.365c1.387,0.833,4.049,0.981,5.944,0.33c1.515-0.521,1.844-1.486,0.734-2.153
	c-0.887-0.534-2.591-0.629-3.804-0.212c1.177-0.405,2.825-0.312,3.685,0.205c1.074,0.647,0.356,1.422-1.11,1.926
	c-1.837,0.632-3.25,0.623-4.596-0.186c-1.68-1.012-1.895-1.929,0.4-2.717c2.868-0.988,6.48-1.095,8.582,0.169
	c2.623,1.579,2.176,3.329-1.411,4.563c-4.482,1.541-9.978,1.51-13.259-0.463c-4.1-2.469-3.612-5.66,1.989-7.587
	c19.286-6.062,40.851,6.206,35.841,26.937"/>
<path fill="#00853F" d="M241.201,77.54c-10.475-3.813-4.936-17.113-4.936-17.113S242.768,73.104,241.201,77.54"/>
<path fill="#00853F" d="M241.201,77.54c6.649-3.225,2.682-9.531-0.771-12.782c-2.797-2.631-4.164-4.332-4.164-4.332
	S241.904,72.707,241.201,77.54"/>
<path fill="#00853F" d="M199.222,61.894c0,0,3.241,6.455,7.211,4.771C206.433,66.665,202.541,65.466,199.222,61.894z"/>
<path fill="#00853F" d="M199.241,61.924c2.07,2.484,6.638,0.907,7.191,4.741C206.433,66.665,201.374,65.077,199.241,61.924z"/>
<path fill="#00853F" d="M196.143,55.885c0,0,18.98,0.626,10.768,5.669C206.91,61.554,205.609,57.88,196.143,55.885z"/>
<path fill="#00853F" d="M196.224,55.893c6.748,1.133-1.523,6.771,10.687,5.662C206.91,61.554,205.128,56.792,196.224,55.893z"/>
<path fill="#00853F" d="M211.288,56.987c0,0,16.062,0.525,12.67,4.864C223.958,61.852,220.429,58.697,211.288,56.987z"/>
<path fill="#00853F" d="M211.361,56.995c6.318,0.969,3.28,5.82,12.597,4.857C223.958,61.852,219.302,57.762,211.361,56.995z"/>
<path fill="#00A94F" d="M241.242,77.514c-0.041,0-0.078-0.025-0.09-0.065c-0.066-0.205-0.098-0.421-0.125-0.63
	c-0.021-0.149-0.043-0.304-0.078-0.45c-0.066-0.281-0.161-0.568-0.255-0.848c-0.061-0.185-0.123-0.376-0.178-0.563
	c-0.032-0.112-0.063-0.225-0.09-0.337c-0.039-0.148-0.078-0.302-0.126-0.447c-0.046-0.15-0.084-0.303-0.121-0.45
	c-0.033-0.133-0.068-0.272-0.107-0.407c-0.041-0.133-0.093-0.27-0.142-0.402c-0.059-0.157-0.118-0.317-0.165-0.482
	c-0.03-0.104-0.047-0.207-0.063-0.31c-0.015-0.097-0.03-0.19-0.057-0.282c-0.026-0.089-0.061-0.175-0.098-0.266
	c-0.037-0.096-0.076-0.193-0.105-0.297c-0.183-0.665-0.401-1.332-0.612-1.976c-0.111-0.343-0.227-0.695-0.338-1.047
	c-0.147-0.473-0.351-0.966-0.663-1.601c-0.31-0.634-0.526-1.324-0.697-1.916c-0.074-0.254-0.146-0.507-0.222-0.759
	c-0.068-0.23-0.136-0.459-0.201-0.688c-0.017-0.056-0.034-0.114-0.052-0.172c-0.071-0.239-0.145-0.486-0.177-0.726
	c-0.02-0.161-0.016-0.316-0.011-0.466c0.002-0.119,0.005-0.231-0.002-0.346c-0.008-0.121-0.028-0.225-0.076-0.355
	c-0.014-0.045-0.028-0.097-0.042-0.152c-0.026-0.108-0.061-0.242-0.114-0.296c-0.036-0.039-0.036-0.098,0.001-0.135
	c0.038-0.038,0.099-0.038,0.136,0c0.091,0.09,0.13,0.247,0.162,0.386c0.015,0.049,0.025,0.098,0.039,0.134
	c0.051,0.147,0.075,0.268,0.086,0.406c0.007,0.124,0.004,0.244,0.002,0.362c-0.005,0.15-0.008,0.292,0.01,0.437
	c0.029,0.226,0.101,0.464,0.17,0.695c0.016,0.059,0.036,0.118,0.052,0.175c0.066,0.228,0.133,0.458,0.201,0.687
	c0.074,0.253,0.148,0.507,0.223,0.761c0.167,0.583,0.381,1.262,0.684,1.884c0.316,0.644,0.526,1.145,0.676,1.628
	c0.108,0.349,0.227,0.703,0.335,1.045c0.213,0.646,0.432,1.314,0.617,1.984c0.026,0.093,0.062,0.182,0.099,0.275
	c0.036,0.092,0.074,0.186,0.101,0.284c0.032,0.104,0.048,0.208,0.064,0.308c0.016,0.098,0.03,0.192,0.057,0.285
	c0.046,0.155,0.104,0.314,0.16,0.468c0.05,0.136,0.102,0.275,0.146,0.414c0.042,0.14,0.076,0.279,0.11,0.416
	c0.036,0.144,0.073,0.294,0.119,0.438c0.048,0.15,0.088,0.306,0.127,0.457c0.027,0.11,0.057,0.222,0.088,0.33
	c0.054,0.187,0.117,0.376,0.179,0.559c0.093,0.283,0.189,0.575,0.26,0.864c0.034,0.155,0.057,0.315,0.078,0.469
	c0.03,0.209,0.058,0.405,0.117,0.596c0.018,0.051-0.011,0.104-0.062,0.121C241.263,77.512,241.252,77.514,241.242,77.514z"/>
<path fill="#00A94F" d="M237.048,64.581c-0.619,0-1.027-1.011-1.272-1.622c-0.043-0.103-0.077-0.194-0.109-0.264
	c-0.021-0.048,0-0.104,0.048-0.127c0.047-0.021,0.105,0,0.126,0.05c0.033,0.071,0.071,0.163,0.112,0.269
	c0.218,0.54,0.624,1.549,1.13,1.5c0.054-0.004,0.1,0.035,0.104,0.086c0.006,0.053-0.032,0.099-0.086,0.105
	C237.081,64.58,237.065,64.581,237.048,64.581z"/>
<path fill="#00A94F" d="M237.339,64.882c-0.039,0-0.073-0.011-0.1-0.024c-0.048-0.024-0.065-0.083-0.042-0.13
	c0.023-0.047,0.082-0.065,0.129-0.042c0.021,0.01,0.05-0.006,0.073-0.022c0.324-0.222,0.744-1.33,0.721-1.564
	c-0.007-0.053,0.032-0.101,0.084-0.105c0.053-0.006,0.099,0.033,0.105,0.086c0.03,0.29-0.415,1.475-0.801,1.741
	C237.443,64.867,237.387,64.882,237.339,64.882z"/>
<path fill="#00A94F" d="M237.511,66.729c-0.061,0-0.126-0.003-0.2-0.01c-0.3-0.028-0.544-0.187-0.77-0.347
	c-0.097-0.069-0.192-0.136-0.287-0.203c-0.371-0.261-0.723-0.509-1.063-0.793c-0.042-0.034-0.047-0.095-0.013-0.136
	c0.034-0.041,0.094-0.047,0.135-0.013c0.335,0.281,0.685,0.526,1.052,0.785c0.095,0.066,0.191,0.135,0.286,0.204
	c0.214,0.151,0.426,0.288,0.679,0.312c0.352,0.034,0.408-0.032,0.409-0.033c-0.008-0.053,0.028-0.103,0.081-0.109
	c0.052-0.008,0.099,0.027,0.106,0.079c0.01,0.062-0.009,0.121-0.049,0.165C237.813,66.695,237.695,66.729,237.511,66.729z"/>
<path fill="#00A94F" d="M238.235,67.088c-0.063,0-0.124-0.015-0.182-0.043c-0.047-0.022-0.067-0.08-0.045-0.127
	c0.022-0.049,0.079-0.069,0.128-0.045c0.063,0.03,0.13,0.03,0.203,0.001c0.327-0.133,0.66-0.786,0.772-1.082
	c0.074-0.201,0.143-0.451,0.197-0.65l0.01-0.035c0.014-0.045,0.026-0.094,0.04-0.143c0.039-0.137,0.081-0.276,0.099-0.397
	c0.007-0.053,0.056-0.09,0.107-0.082c0.053,0.007,0.091,0.055,0.082,0.108c-0.019,0.136-0.062,0.284-0.104,0.427
	c-0.014,0.048-0.028,0.094-0.039,0.14l-0.01,0.034c-0.057,0.204-0.127,0.457-0.204,0.667c-0.103,0.274-0.459,1.021-0.881,1.192
	C238.351,67.077,238.292,67.088,238.235,67.088z"/>
<path fill="#00A94F" d="M238.907,69.435c-0.012,0-0.023-0.002-0.033-0.007c-0.084-0.031-0.207-0.025-0.323-0.021
	c-0.045,0.003-0.088,0.005-0.126,0.005c-0.462,0-0.885-0.07-1.339-0.218c-0.566-0.183-1.126-0.57-1.712-1.182
	c-0.037-0.039-0.036-0.1,0.002-0.136c0.037-0.037,0.099-0.037,0.136,0.002c0.563,0.588,1.098,0.959,1.632,1.132
	c0.435,0.143,0.842,0.208,1.281,0.208c0.035,0,0.075-0.002,0.117-0.003c0.13-0.006,0.277-0.014,0.4,0.033
	c0.048,0.019,0.073,0.075,0.054,0.125C238.983,69.411,238.945,69.435,238.907,69.435z"/>
<path fill="#00A94F" d="M239.16,70.035c-0.05,0-0.097-0.043-0.097-0.097c0-0.052,0.041-0.095,0.095-0.095l0,0c0,0,0.001,0,0.002,0
	c0.706,0,1.188-0.143,1.518-0.45c0.233-0.216,0.46-0.469,0.67-0.746c0.051-0.068,0.107-0.133,0.161-0.196
	c0.114-0.136,0.22-0.263,0.294-0.408c0.082-0.163,0.135-0.336,0.187-0.501c0.028-0.085,0.054-0.173,0.083-0.257
	c0.019-0.05,0.072-0.075,0.12-0.057c0.049,0.018,0.072,0.075,0.056,0.125c-0.031,0.082-0.056,0.165-0.081,0.247
	c-0.055,0.173-0.109,0.353-0.199,0.53c-0.083,0.168-0.204,0.31-0.318,0.447c-0.054,0.062-0.107,0.125-0.155,0.189
	c-0.218,0.287-0.449,0.544-0.691,0.769C240.322,69.983,239.636,70.035,239.16,70.035z"/>
<path fill="#00A94F" d="M240.318,73.448c-0.009,0-0.019,0-0.027-0.001c-0.055-0.001-0.095-0.046-0.092-0.099
	c0.002-0.055,0.049-0.093,0.098-0.093c0.367,0.019,0.948-0.338,1.229-0.567c0.414-0.332,0.719-0.825,0.864-1.088
	c0.161-0.298,0.298-0.62,0.426-0.932c0.144-0.342,0.292-0.696,0.478-1.018c0.025-0.046,0.084-0.061,0.13-0.035
	c0.047,0.025,0.063,0.085,0.037,0.132c-0.182,0.31-0.327,0.658-0.468,0.995c-0.132,0.317-0.267,0.644-0.436,0.949
	c-0.151,0.277-0.475,0.792-0.912,1.146C241.338,73.088,240.736,73.448,240.318,73.448z"/>
<path fill="#00A94F" d="M241.153,76.849c-0.039,0-0.077-0.006-0.107-0.018c-0.05-0.021-0.073-0.078-0.053-0.127
	c0.021-0.05,0.077-0.072,0.125-0.052c0.153,0.065,0.748-0.322,1.073-0.607c0.366-0.318,0.608-0.614,0.867-1.054
	c0.063-0.104,0.123-0.207,0.187-0.311c0.154-0.257,0.311-0.521,0.458-0.786c0.071-0.127,0.13-0.267,0.187-0.402
	c0.069-0.17,0.144-0.347,0.242-0.504c0.028-0.045,0.088-0.058,0.131-0.029c0.046,0.029,0.06,0.087,0.03,0.132
	c-0.088,0.145-0.156,0.307-0.228,0.477c-0.059,0.14-0.12,0.286-0.193,0.42c-0.15,0.269-0.31,0.537-0.464,0.793
	c-0.062,0.103-0.123,0.206-0.185,0.31c-0.268,0.452-0.53,0.771-0.906,1.102C242.309,76.197,241.557,76.849,241.153,76.849z"/>
<path fill="#00A94F" d="M206.347,66.695c-0.098,0-0.201-0.036-0.291-0.068l-0.042-0.015c-0.089-0.03-0.177-0.062-0.266-0.095
	c-0.073-0.027-0.147-0.053-0.218-0.079c-0.351-0.12-0.68-0.292-0.966-0.445c-0.183-0.096-0.362-0.205-0.538-0.309
	c-0.085-0.052-0.17-0.102-0.257-0.152c-0.225-0.131-0.455-0.285-0.686-0.455c-0.208-0.154-0.432-0.317-0.664-0.452
	c-0.08-0.046-0.155-0.097-0.231-0.147c-0.111-0.074-0.226-0.151-0.346-0.209c-0.227-0.11-0.437-0.265-0.638-0.415
	c-0.085-0.063-0.169-0.126-0.253-0.184c-0.402-0.279-0.705-0.523-0.954-0.771c-0.112-0.111-0.222-0.223-0.333-0.337
	c-0.058-0.06-0.103-0.113-0.14-0.168c-0.015-0.019-0.022-0.041-0.034-0.063c-0.015-0.031-0.029-0.063-0.051-0.076
	c-0.023-0.017-0.029-0.045-0.014-0.068c0.016-0.022,0.044-0.027,0.066-0.011c0.043,0.028,0.065,0.074,0.085,0.115
	c0.007,0.017,0.017,0.035,0.025,0.049c0.034,0.05,0.075,0.099,0.131,0.155c0.11,0.112,0.219,0.224,0.332,0.337
	c0.242,0.242,0.542,0.483,0.939,0.759c0.085,0.059,0.17,0.123,0.255,0.185c0.198,0.148,0.404,0.302,0.624,0.406
	c0.125,0.062,0.243,0.14,0.357,0.216c0.073,0.048,0.15,0.099,0.227,0.145c0.233,0.136,0.462,0.301,0.673,0.457
	c0.227,0.168,0.454,0.318,0.674,0.448c0.088,0.049,0.173,0.101,0.26,0.152c0.174,0.104,0.354,0.213,0.531,0.306
	c0.287,0.151,0.61,0.321,0.951,0.441c0.075,0.026,0.15,0.052,0.225,0.079c0.088,0.032,0.173,0.063,0.263,0.094l0.042,0.016
	c0.084,0.03,0.181,0.065,0.263,0.063c0.029,0,0.048,0.021,0.048,0.047c0,0.028-0.021,0.049-0.047,0.049
	C206.351,66.695,206.348,66.695,206.347,66.695z"/>
<path fill="#00A94F" d="M205.984,66.591c-0.002,0-0.002,0-0.004,0c-0.026-0.002-0.048-0.024-0.045-0.052
	c0.013-0.229-0.049-0.482-0.087-0.614c-0.01-0.03-0.022-0.062-0.033-0.093c-0.017-0.045-0.035-0.092-0.045-0.141
	c-0.008-0.034-0.011-0.07-0.016-0.106c-0.007-0.067-0.014-0.128-0.044-0.18c-0.012-0.022-0.005-0.052,0.017-0.066
	c0.021-0.014,0.052-0.006,0.065,0.018c0.043,0.069,0.049,0.145,0.057,0.218c0.005,0.034,0.007,0.065,0.013,0.097
	c0.011,0.041,0.028,0.085,0.044,0.127c0.011,0.033,0.023,0.066,0.032,0.099c0.042,0.138,0.107,0.404,0.092,0.649
	C206.029,66.571,206.008,66.591,205.984,66.591z"/>
<path fill="#00A94F" d="M204.63,66.815c-0.026,0-0.048-0.021-0.049-0.046c-0.001-0.027,0.021-0.05,0.046-0.05
	c0.313-0.01,0.643-0.171,0.8-0.388c0.015-0.023,0.044-0.027,0.067-0.011c0.021,0.016,0.024,0.044,0.01,0.067
	c-0.177,0.245-0.528,0.417-0.871,0.429C204.632,66.815,204.63,66.815,204.63,66.815z"/>
<path fill="#00A94F" d="M205.011,66.206c-0.004,0-0.009,0-0.014-0.002c-0.024-0.006-0.039-0.034-0.03-0.06
	c0.043-0.146,0.006-0.343-0.028-0.517c-0.013-0.062-0.024-0.121-0.031-0.174c-0.019-0.127-0.049-0.256-0.08-0.378l-0.025-0.114
	c-0.022-0.097-0.052-0.219-0.094-0.291c-0.014-0.024-0.007-0.053,0.017-0.067c0.022-0.014,0.051-0.006,0.064,0.017
	c0.052,0.085,0.08,0.214,0.105,0.319l0.026,0.112c0.031,0.126,0.062,0.257,0.08,0.389c0.008,0.051,0.017,0.109,0.031,0.168
	c0.036,0.185,0.076,0.395,0.024,0.563C205.05,66.192,205.032,66.206,205.011,66.206z"/>
<path fill="#00A94F" d="M203.219,66.367c-0.015,0-0.028-0.008-0.039-0.022c-0.014-0.021-0.01-0.05,0.012-0.066
	c0.056-0.039,0.147-0.037,0.225-0.034c0.036,0.001,0.07,0.002,0.094-0.001c0.092-0.012,0.185-0.023,0.276-0.038
	c0.133-0.021,0.255-0.06,0.403-0.125c0.015-0.006,0.032-0.012,0.049-0.019c0.041-0.014,0.081-0.031,0.112-0.055
	c0.014-0.012,0.025-0.03,0.041-0.049c0.021-0.029,0.043-0.062,0.079-0.083c0.023-0.012,0.052-0.004,0.065,0.02
	c0.012,0.024,0.004,0.053-0.019,0.065c-0.019,0.009-0.032,0.03-0.048,0.053c-0.015,0.022-0.034,0.048-0.06,0.068
	c-0.042,0.033-0.091,0.053-0.139,0.071c-0.014,0.005-0.029,0.011-0.045,0.017c-0.154,0.067-0.286,0.108-0.426,0.131
	c-0.093,0.015-0.186,0.028-0.279,0.04c-0.03,0.004-0.069,0.002-0.108,0.002c-0.061-0.002-0.138-0.005-0.166,0.016
	C203.237,66.363,203.229,66.367,203.219,66.367z"/>
<path fill="#00A94F" d="M204.023,65.677c-0.025,0-0.047-0.021-0.048-0.047c-0.001-0.068,0.008-0.139,0.017-0.207
	c0.007-0.05,0.014-0.103,0.015-0.153c0.006-0.084,0.004-0.174,0.001-0.26c-0.001-0.044-0.001-0.09-0.001-0.134
	c0-0.214-0.045-0.418-0.147-0.662c-0.009-0.025,0.002-0.053,0.026-0.063c0.024-0.01,0.053,0.001,0.063,0.026
	c0.106,0.254,0.156,0.471,0.156,0.699c0,0.044,0,0.089,0.001,0.134c0.001,0.086,0.002,0.176-0.001,0.264
	c-0.004,0.054-0.01,0.108-0.017,0.161c-0.009,0.068-0.016,0.132-0.016,0.193C204.072,65.656,204.051,65.676,204.023,65.677
	L204.023,65.677z"/>
<path fill="#00A94F" d="M202.539,65.726c-0.038,0-0.074,0-0.111,0c-0.035-0.001-0.073-0.001-0.109-0.001
	c-0.025,0-0.047-0.021-0.047-0.048c0-0.026,0.021-0.048,0.047-0.048c0.036,0,0.074,0.001,0.111,0.002
	c0.149,0.001,0.304,0.004,0.447-0.027c0.098-0.021,0.225-0.048,0.324-0.095c0.043-0.018,0.08-0.052,0.121-0.086
	c0.049-0.045,0.102-0.09,0.169-0.112c0.025-0.008,0.053,0.006,0.061,0.03c0.008,0.026-0.006,0.053-0.031,0.061
	c-0.049,0.016-0.092,0.054-0.138,0.094c-0.042,0.037-0.087,0.077-0.144,0.101c-0.106,0.05-0.239,0.08-0.344,0.102
	C202.78,65.722,202.657,65.726,202.539,65.726z"/>
<path fill="#00A94F" d="M203.219,65.166c-0.023,0-0.044-0.019-0.048-0.044c-0.009-0.079,0.017-0.164,0.041-0.244
	c0.014-0.052,0.027-0.102,0.033-0.146c0.003-0.03,0.008-0.061,0.01-0.089c0.011-0.065,0.02-0.129,0.02-0.195l0.001-0.048
	c0-0.069,0.001-0.134-0.016-0.195c-0.008-0.032-0.022-0.063-0.035-0.097c-0.025-0.058-0.05-0.116-0.054-0.181
	c-0.001-0.026,0.02-0.049,0.045-0.05c0.027-0.001,0.05,0.02,0.052,0.046c0.001,0.046,0.022,0.096,0.045,0.146
	c0.015,0.036,0.031,0.072,0.041,0.11c0.021,0.075,0.018,0.149,0.018,0.22l-0.001,0.048c0,0.073-0.009,0.142-0.019,0.208
	c-0.005,0.029-0.008,0.058-0.011,0.088c-0.006,0.052-0.022,0.107-0.038,0.162c-0.021,0.072-0.044,0.147-0.036,0.206
	c0.003,0.027-0.016,0.051-0.042,0.054C203.222,65.166,203.221,65.166,203.219,65.166z"/>
<path fill="#00A94F" d="M201.815,65.189c-0.014,0-0.028,0-0.043,0h-0.043c-0.026,0-0.048-0.021-0.048-0.049
	c0-0.027,0.021-0.048,0.048-0.048h0.043c0.153,0,0.298,0.001,0.431-0.044c0.101-0.035,0.181-0.062,0.264-0.109
	c0.018-0.011,0.036-0.02,0.056-0.03c0.035-0.017,0.069-0.034,0.097-0.057c0.012-0.008,0.019-0.018,0.027-0.025
	c0.021-0.026,0.047-0.057,0.096-0.062c0.027-0.003,0.052,0.016,0.055,0.042c0.004,0.026-0.016,0.05-0.041,0.053
	c-0.014,0.001-0.021,0.01-0.04,0.03c-0.012,0.013-0.023,0.027-0.039,0.039c-0.033,0.027-0.073,0.046-0.111,0.065
	c-0.019,0.009-0.035,0.018-0.051,0.028c-0.092,0.053-0.18,0.083-0.28,0.117C202.098,65.184,201.956,65.189,201.815,65.189z"/>
<path fill="#00A94F" d="M202.382,64.563c-0.026,0-0.048-0.021-0.048-0.048c0-0.089,0.008-0.174,0.016-0.259
	c0.019-0.205,0.036-0.398-0.064-0.593c-0.013-0.022-0.004-0.051,0.019-0.064c0.024-0.012,0.052-0.003,0.066,0.021
	c0.111,0.219,0.094,0.436,0.075,0.645c-0.007,0.083-0.015,0.166-0.015,0.25C202.431,64.542,202.409,64.563,202.382,64.563z"/>
<path fill="#00A94F" d="M201.366,64.676c-0.067,0-0.132-0.013-0.177-0.05c-0.021-0.017-0.022-0.048-0.006-0.068
	s0.045-0.024,0.066-0.007c0.06,0.048,0.218,0.028,0.347-0.013c0.069-0.024,0.152-0.052,0.219-0.095l0.026-0.016
	c0.085-0.051,0.131-0.087,0.136-0.106c0.005-0.025,0.031-0.042,0.057-0.037c0.025,0.006,0.041,0.032,0.037,0.058
	c-0.015,0.065-0.094,0.117-0.182,0.169l-0.023,0.013c-0.076,0.049-0.164,0.081-0.24,0.105
	C201.571,64.646,201.466,64.676,201.366,64.676z"/>
<path fill="#00A94F" d="M201.505,64.051c-0.021,0-0.041-0.017-0.045-0.041c-0.002-0.026,0.015-0.049,0.038-0.053
	c0.028-0.004,0.047-0.034,0.06-0.06c0.061-0.131,0.051-0.378,0.014-0.448c-0.014-0.022-0.007-0.052,0.014-0.064
	c0.021-0.014,0.049-0.006,0.062,0.017c0.056,0.1,0.061,0.384-0.011,0.538c-0.038,0.083-0.09,0.107-0.125,0.112
	C201.509,64.051,201.507,64.051,201.505,64.051z"/>
<path fill="#00A94F" d="M200.623,63.939c-0.027,0-0.049-0.022-0.049-0.049c0-0.026,0.02-0.047,0.048-0.047h0.01
	c0.433-0.004,0.463-0.073,0.463-0.073c-0.009-0.026,0.008-0.054,0.032-0.061c0.025-0.008,0.053,0.007,0.061,0.031
	c0.008,0.032,0.002,0.063-0.018,0.088c-0.033,0.046-0.127,0.107-0.538,0.109L200.623,63.939L200.623,63.939z"/>
<path fill="#00A94F" d="M200.749,63.498c-0.021,0-0.041-0.014-0.046-0.036c-0.007-0.025,0.008-0.052,0.034-0.059
	c0.012-0.003,0.04-0.034,0.037-0.253v-0.029c0-0.026,0.02-0.048,0.048-0.048c0.025,0,0.046,0.022,0.046,0.048v0.028
	c0.002,0.127,0.006,0.316-0.106,0.346C200.759,63.497,200.754,63.498,200.749,63.498z"/>
<path fill="#00A94F" d="M200.231,63.387c-0.015,0-0.027,0-0.038,0l-0.02-0.001c-0.026,0-0.046-0.021-0.046-0.045
	c0-0.025,0.02-0.045,0.046-0.045h0.021c0.211,0.002,0.224-0.033,0.224-0.041c0.003-0.025,0.022-0.045,0.048-0.043
	c0.024,0.001,0.042,0.022,0.042,0.047C200.503,63.376,200.337,63.387,200.231,63.387z"/>
<path fill="#00A94F" d="M200.166,63.015c-0.01,0-0.021-0.005-0.029-0.011c-0.018-0.016-0.02-0.043-0.004-0.061
	c0.025-0.031,0.027-0.076,0.026-0.121c-0.003-0.024,0.019-0.043,0.042-0.044c0.022-0.003,0.046,0.018,0.046,0.041
	c0.002,0.06-0.001,0.127-0.048,0.18C200.191,63.008,200.178,63.015,200.166,63.015z"/>
<path fill="#00A94F" d="M206.896,61.552c-0.013,0-0.026-0.005-0.035-0.016c-0.135-0.146-0.295-0.274-0.451-0.398
	c-0.186-0.146-0.376-0.297-0.53-0.482c-0.045-0.054-0.09-0.111-0.135-0.165c-0.114-0.144-0.231-0.29-0.363-0.419
	c-0.1-0.097-0.187-0.206-0.272-0.312c-0.106-0.129-0.215-0.263-0.339-0.372c-0.362-0.321-0.678-0.574-1.047-0.759
	c-0.254-0.127-0.502-0.274-0.738-0.418c-0.082-0.049-0.161-0.098-0.243-0.144c-0.14-0.083-0.278-0.168-0.419-0.252
	c-0.225-0.137-0.455-0.276-0.687-0.407c-0.345-0.193-0.715-0.297-1.107-0.409l-0.021-0.007c-0.153-0.042-0.306-0.087-0.458-0.128
	c-0.392-0.11-0.799-0.223-1.194-0.346c-0.196-0.061-0.401-0.116-0.602-0.17c-0.087-0.024-0.175-0.047-0.262-0.07
	c-0.04-0.013-0.082-0.025-0.122-0.038c-0.076-0.024-0.151-0.047-0.229-0.062c-0.15-0.029-0.278-0.069-0.412-0.112l-0.109-0.034
	c-0.025-0.006-0.039-0.034-0.032-0.06c0.007-0.025,0.035-0.039,0.059-0.031l0.109,0.034c0.133,0.042,0.259,0.08,0.405,0.109
	c0.08,0.016,0.159,0.041,0.237,0.064c0.04,0.011,0.078,0.023,0.119,0.036c0.087,0.022,0.174,0.046,0.264,0.07
	c0.198,0.054,0.402,0.111,0.602,0.17c0.396,0.122,0.802,0.235,1.192,0.346c0.154,0.042,0.308,0.085,0.46,0.129l0.021,0.005
	c0.38,0.108,0.772,0.221,1.127,0.419c0.235,0.131,0.466,0.272,0.69,0.408c0.139,0.084,0.278,0.169,0.418,0.251
	c0.081,0.047,0.163,0.097,0.242,0.144c0.236,0.143,0.481,0.29,0.732,0.416c0.378,0.189,0.7,0.445,1.067,0.772
	c0.13,0.114,0.241,0.252,0.351,0.383c0.084,0.104,0.172,0.211,0.265,0.304c0.135,0.134,0.256,0.283,0.37,0.426
	c0.045,0.055,0.091,0.111,0.135,0.165c0.147,0.176,0.336,0.325,0.516,0.469c0.159,0.126,0.322,0.256,0.462,0.407
	c0.02,0.019,0.019,0.049-0.002,0.067C206.919,61.547,206.907,61.552,206.896,61.552z"/>
<path fill="#00A94F" d="M206.537,61.202c-0.021,0-0.039-0.012-0.045-0.032c-0.01-0.024,0.003-0.053,0.028-0.062
	c0.119-0.043,0.214-0.361,0.258-0.513c0.01-0.03,0.017-0.056,0.022-0.077c0.073-0.231,0.106-0.459,0.142-0.7
	c0.013-0.086,0.024-0.171,0.039-0.258c0.034-0.219,0.03-0.459,0.023-0.69c-0.001-0.081-0.003-0.164-0.003-0.243
	c0-0.069,0.002-0.14,0.004-0.211c0.007-0.171,0.013-0.347-0.014-0.509c-0.005-0.026,0.012-0.051,0.038-0.056
	c0.027-0.004,0.052,0.014,0.057,0.04c0.026,0.171,0.021,0.353,0.017,0.528c-0.004,0.07-0.006,0.14-0.006,0.208
	c0,0.078,0.002,0.16,0.006,0.241c0.003,0.235,0.009,0.48-0.029,0.708c-0.014,0.086-0.025,0.172-0.038,0.255
	c-0.034,0.234-0.068,0.477-0.146,0.716c-0.004,0.02-0.013,0.046-0.022,0.074c-0.075,0.263-0.163,0.523-0.315,0.578
	C206.547,61.201,206.543,61.202,206.537,61.202z"/>
<path fill="#00A94F" d="M204.633,61.602c-0.086,0-0.168-0.008-0.246-0.015c-0.101-0.009-0.192-0.017-0.285-0.014
	c-0.025,0.002-0.049-0.02-0.051-0.048c0-0.028,0.021-0.053,0.047-0.053c0.099-0.004,0.198,0.006,0.297,0.014
	c0.102,0.01,0.21,0.02,0.314,0.012c0.198-0.014,0.401-0.062,0.587-0.138c0.238-0.096,0.722-0.34,0.771-0.466
	c0-0.002,0.002-0.008,0.001-0.01c-0.012-0.026-0.001-0.056,0.023-0.068c0.023-0.012,0.05-0.002,0.063,0.024
	c0.008,0.019,0.017,0.052,0.002,0.092c-0.08,0.216-0.816,0.521-0.824,0.523c-0.194,0.079-0.407,0.129-0.615,0.144
	C204.687,61.602,204.658,61.602,204.633,61.602z"/>
<path fill="#00A94F" d="M205.736,60.385c-0.005,0-0.007,0-0.009-0.001c-0.026-0.004-0.043-0.03-0.039-0.056
	c0.019-0.083,0.056-0.158,0.094-0.229c0.033-0.065,0.065-0.128,0.08-0.197c0.041-0.164,0.074-0.319,0.102-0.476
	c0.054-0.306,0.082-0.563,0.084-0.806c0-0.144,0.006-0.29,0.012-0.436c0.007-0.164,0.013-0.335,0.013-0.503
	c0-0.026,0.021-0.048,0.045-0.048c0.027,0,0.05,0.021,0.05,0.048c0,0.168-0.008,0.341-0.013,0.507
	c-0.006,0.145-0.011,0.289-0.014,0.432c-0.001,0.25-0.026,0.512-0.083,0.823c-0.028,0.158-0.063,0.315-0.102,0.482
	c-0.02,0.08-0.056,0.149-0.089,0.216c-0.035,0.071-0.069,0.136-0.084,0.207C205.778,60.369,205.759,60.385,205.736,60.385z"/>
<path fill="#00A94F" d="M201.686,61.179c-0.021,0-0.039-0.013-0.045-0.034c-0.009-0.028,0.006-0.054,0.032-0.062
	c0.171-0.053,0.353-0.095,0.526-0.133c0.098-0.023,0.2-0.045,0.299-0.07c0.109-0.027,0.218-0.045,0.325-0.063
	c0.107-0.016,0.216-0.035,0.318-0.06c0.091-0.024,0.183-0.052,0.272-0.077c0.129-0.038,0.26-0.077,0.392-0.105
	c0.308-0.068,0.577-0.163,0.801-0.281c0.372-0.199,0.551-0.369,0.527-0.5c-0.003-0.026,0.014-0.052,0.04-0.056
	c0.026-0.005,0.052,0.014,0.057,0.04c0.039,0.242-0.313,0.459-0.579,0.603c-0.231,0.124-0.509,0.22-0.824,0.29
	c-0.129,0.028-0.26,0.067-0.387,0.104c-0.092,0.026-0.185,0.053-0.274,0.077c-0.106,0.027-0.22,0.045-0.327,0.063
	c-0.106,0.017-0.213,0.035-0.317,0.061c-0.101,0.025-0.202,0.047-0.302,0.071c-0.172,0.038-0.351,0.079-0.521,0.131
	C201.695,61.178,201.69,61.179,201.686,61.179z"/>
<path fill="#00A94F" d="M204.673,59.251c-0.026,0-0.047-0.021-0.048-0.044c-0.003-0.074,0.029-0.166,0.061-0.255
	c0.021-0.062,0.043-0.125,0.05-0.175c0.032-0.21,0.053-0.399,0.06-0.575c0.011-0.275-0.03-0.531-0.132-0.808
	c-0.009-0.023,0.005-0.05,0.03-0.058c0.023-0.009,0.051,0.003,0.061,0.028c0.104,0.287,0.148,0.554,0.135,0.84
	c-0.006,0.181-0.025,0.373-0.061,0.585c-0.006,0.061-0.029,0.128-0.053,0.193c-0.028,0.08-0.058,0.163-0.056,0.219
	C204.721,59.229,204.7,59.25,204.673,59.251L204.673,59.251z"/>
<path fill="#00A94F" d="M200.216,60.109c-0.018,0-0.037-0.011-0.044-0.03c-0.011-0.024,0.002-0.053,0.025-0.063
	c0.114-0.048,0.238-0.054,0.355-0.059c0.07-0.003,0.136-0.007,0.199-0.018c0.353-0.063,0.706-0.16,1.046-0.252
	c0.083-0.022,0.165-0.045,0.246-0.066c0.097-0.026,0.195-0.052,0.29-0.075c0.366-0.093,0.712-0.179,1.05-0.344
	c0.227-0.107,0.5-0.296,0.538-0.473c0.004-0.026,0.029-0.043,0.055-0.037c0.027,0.005,0.044,0.031,0.038,0.056
	c-0.056,0.266-0.464,0.481-0.588,0.542c-0.348,0.167-0.698,0.256-1.069,0.348c-0.095,0.025-0.193,0.049-0.288,0.076
	c-0.082,0.021-0.164,0.042-0.245,0.065c-0.343,0.093-0.698,0.19-1.057,0.253c-0.068,0.014-0.14,0.016-0.21,0.02
	c-0.115,0.005-0.226,0.01-0.324,0.053C200.229,60.108,200.222,60.109,200.216,60.109z"/>
<path fill="#00A94F" d="M203.383,58.415c-0.026,0-0.048-0.022-0.048-0.048c-0.002-0.334-0.091-0.69-0.179-0.994
	c-0.015-0.051-0.028-0.1-0.041-0.15c-0.036-0.139-0.075-0.282-0.135-0.411c-0.011-0.024-0.002-0.052,0.022-0.063
	c0.024-0.012,0.054-0.002,0.064,0.023c0.063,0.136,0.103,0.283,0.14,0.426c0.014,0.048,0.025,0.099,0.041,0.148
	c0.091,0.311,0.181,0.675,0.181,1.021C203.429,58.393,203.407,58.415,203.383,58.415L203.383,58.415z"/>
<path fill="#00A94F" d="M200.168,59.04c-0.025,0-0.046-0.021-0.047-0.046c-0.002-0.026,0.018-0.049,0.045-0.05
	c0.485-0.021,1.109-0.073,1.66-0.282c0.352-0.133,0.6-0.365,0.761-0.712c0.01-0.023,0.04-0.034,0.063-0.022
	c0.022,0.01,0.034,0.04,0.021,0.063c-0.171,0.371-0.437,0.619-0.812,0.762c-0.563,0.213-1.198,0.266-1.689,0.288
	C200.17,59.04,200.168,59.04,200.168,59.04z"/>
<path fill="#00A94F" d="M201.816,57.49c-0.02,0-0.038-0.011-0.045-0.031c-0.008-0.024,0.003-0.051,0.029-0.061
	c0.09-0.034,0.112-0.306,0.12-0.42c0.001-0.02,0.003-0.04,0.004-0.054c0.011-0.12,0.001-0.287-0.065-0.398
	c-0.013-0.022-0.005-0.051,0.019-0.063c0.022-0.013,0.051-0.005,0.063,0.017c0.066,0.111,0.095,0.28,0.078,0.454
	c-0.001,0.015-0.002,0.031-0.004,0.051c-0.013,0.167-0.033,0.447-0.182,0.502C201.828,57.489,201.822,57.49,201.816,57.49z"/>
<path fill="#00A94F" d="M199.641,57.874c-0.024,0-0.046-0.021-0.046-0.048c0-0.027,0.021-0.048,0.046-0.048
	c0.271-0.002,0.558-0.045,0.775-0.082c0.27-0.045,0.475-0.112,0.628-0.206c0.146-0.087,0.254-0.197,0.247-0.248
	c-0.003-0.026,0.016-0.05,0.043-0.054c0.025-0.003,0.049,0.016,0.054,0.043c0.016,0.142-0.22,0.297-0.293,0.341
	c-0.167,0.101-0.378,0.171-0.662,0.219C200.21,57.829,199.919,57.873,199.641,57.874L199.641,57.874z"/>
<path fill="#00A94F" d="M200.179,56.889c-0.013,0-0.025-0.006-0.035-0.017c-0.019-0.02-0.016-0.051,0.004-0.069
	c0.091-0.078,0.086-0.249,0.082-0.386c-0.001-0.028-0.003-0.057-0.003-0.082c0-0.027,0.022-0.048,0.05-0.048
	c0.026,0,0.047,0.021,0.047,0.048c0,0.025,0.001,0.051,0.002,0.079c0.004,0.157,0.01,0.354-0.114,0.462
	C200.201,56.885,200.191,56.889,200.179,56.889z"/>
<path fill="#00A94F" d="M199.08,57.177c-0.018,0-0.034-0.011-0.043-0.028c-0.011-0.024,0-0.053,0.021-0.064
	c0.059-0.027,0.12-0.038,0.177-0.048c0.074-0.013,0.144-0.025,0.198-0.067c0.035-0.025,0.063-0.082,0.089-0.136
	c0.035-0.074,0.072-0.151,0.142-0.172c0.024-0.008,0.052,0.006,0.061,0.031c0.007,0.025-0.008,0.052-0.032,0.06
	c-0.031,0.009-0.06,0.069-0.084,0.123c-0.031,0.065-0.063,0.132-0.117,0.171c-0.075,0.054-0.158,0.071-0.239,0.084
	c-0.054,0.01-0.105,0.019-0.149,0.041C199.095,57.176,199.087,57.177,199.08,57.177z"/>
<path fill="#00A94F" d="M199.188,56.588c-0.026,0-0.048-0.021-0.048-0.048c0-0.022,0.002-0.049,0.003-0.079
	c0.006-0.085,0.015-0.202-0.034-0.245c-0.021-0.016-0.022-0.046-0.006-0.067c0.018-0.02,0.047-0.022,0.067-0.005
	c0.085,0.072,0.076,0.212,0.068,0.324c-0.003,0.027-0.004,0.051-0.004,0.072C199.235,56.567,199.216,56.588,199.188,56.588z"/>
<path fill="#00A94F" d="M198.459,56.671c-0.021,0-0.041-0.013-0.045-0.035c-0.008-0.027,0.008-0.053,0.034-0.059
	c0.028-0.008,0.081-0.049,0.125-0.083c0.084-0.064,0.155-0.121,0.216-0.095c0.023,0.01,0.036,0.039,0.024,0.064
	c-0.009,0.022-0.035,0.033-0.058,0.025c-0.023,0.004-0.084,0.052-0.124,0.082c-0.059,0.044-0.113,0.089-0.16,0.1
	C198.468,56.671,198.463,56.671,198.459,56.671z"/>
<path fill="#00A94F" d="M223.886,61.806c-0.007,0-0.016-0.002-0.022-0.007c-0.071-0.041-0.136-0.099-0.198-0.155
	c-0.043-0.042-0.089-0.083-0.137-0.117c-0.08-0.056-0.162-0.097-0.25-0.141c-0.053-0.026-0.106-0.053-0.159-0.083
	c-0.14-0.079-0.281-0.157-0.423-0.235c-0.262-0.142-0.531-0.29-0.789-0.452c-0.175-0.11-0.361-0.213-0.538-0.313
	c-0.202-0.114-0.411-0.231-0.608-0.358c-0.366-0.24-0.788-0.4-1.194-0.556c-0.147-0.057-0.301-0.116-0.449-0.178
	c-0.176-0.072-0.392-0.161-0.605-0.226c-0.081-0.023-0.164-0.042-0.249-0.057c-0.063-0.014-0.131-0.028-0.194-0.044
	c-0.129-0.032-0.249-0.089-0.366-0.142c-0.099-0.047-0.193-0.09-0.292-0.121c-0.038-0.012-0.078-0.024-0.116-0.034
	c-0.072-0.021-0.147-0.042-0.221-0.069c-0.202-0.079-0.422-0.136-0.631-0.19c-0.068-0.017-0.137-0.035-0.206-0.054
	c-0.132-0.036-0.26-0.083-0.383-0.129c-0.128-0.047-0.261-0.097-0.394-0.132c-0.19-0.049-0.378-0.11-0.561-0.17
	c-0.139-0.045-0.282-0.091-0.421-0.132c-0.114-0.033-0.23-0.074-0.341-0.116c-0.172-0.063-0.351-0.128-0.527-0.159
	c-0.069-0.011-0.14-0.022-0.213-0.035c-0.395-0.065-0.804-0.132-1.155-0.258c-0.025-0.009-0.037-0.037-0.028-0.061
	c0.009-0.026,0.035-0.038,0.061-0.03c0.342,0.124,0.747,0.19,1.14,0.254c0.072,0.012,0.144,0.023,0.213,0.035
	c0.186,0.032,0.366,0.098,0.544,0.163c0.109,0.041,0.225,0.083,0.336,0.114c0.139,0.041,0.282,0.087,0.422,0.133
	c0.181,0.059,0.368,0.12,0.555,0.167c0.139,0.038,0.272,0.087,0.402,0.135c0.124,0.043,0.247,0.091,0.377,0.126
	c0.067,0.018,0.136,0.036,0.202,0.053c0.215,0.056,0.433,0.113,0.645,0.193c0.066,0.026,0.14,0.047,0.21,0.066
	c0.04,0.012,0.08,0.023,0.118,0.035c0.106,0.033,0.208,0.08,0.306,0.125c0.111,0.052,0.227,0.106,0.348,0.137
	c0.063,0.017,0.128,0.03,0.192,0.043c0.085,0.018,0.171,0.034,0.256,0.059c0.22,0.065,0.438,0.157,0.614,0.23
	c0.148,0.061,0.3,0.119,0.448,0.176c0.412,0.156,0.837,0.32,1.212,0.565c0.193,0.125,0.401,0.243,0.601,0.354
	c0.182,0.101,0.367,0.205,0.545,0.316c0.253,0.16,0.522,0.308,0.782,0.449c0.144,0.078,0.284,0.156,0.427,0.237
	c0.051,0.029,0.101,0.054,0.153,0.081c0.088,0.043,0.178,0.09,0.262,0.148c0.052,0.037,0.1,0.081,0.147,0.124
	c0.061,0.055,0.116,0.107,0.179,0.143c0.023,0.014,0.033,0.043,0.02,0.065C223.92,61.796,223.904,61.806,223.886,61.806z"/>
<path fill="#00A94F" d="M223.564,61.526c-0.021,0-0.041-0.013-0.044-0.036c-0.019-0.059,0.005-0.146,0.042-0.277
	c0.018-0.057,0.033-0.112,0.038-0.148c0.022-0.183,0.024-0.36,0.024-0.555c0-0.08,0.002-0.162,0.007-0.246
	c0.008-0.193,0.019-0.394-0.018-0.565c-0.007-0.026,0.011-0.052,0.036-0.057c0.025-0.006,0.05,0.011,0.058,0.037
	c0.038,0.185,0.028,0.392,0.02,0.591c-0.004,0.081-0.008,0.162-0.008,0.24c0,0.199-0.003,0.379-0.025,0.566
	c-0.004,0.044-0.022,0.103-0.04,0.165c-0.022,0.08-0.053,0.188-0.043,0.226c0.007,0.026-0.009,0.051-0.033,0.059
	C223.574,61.526,223.568,61.526,223.564,61.526z"/>
<path fill="#00A94F" d="M220.936,61.792c-0.026,0-0.047-0.021-0.047-0.046c0-0.024,0.021-0.045,0.047-0.045
	c0.344,0,0.614-0.023,0.897-0.136c0.246-0.098,0.718-0.393,0.708-0.58c0-0.026,0.02-0.048,0.046-0.049
	c0.029-0.001,0.048,0.019,0.049,0.044c0.016,0.294-0.636,0.618-0.767,0.669C221.572,61.767,221.291,61.792,220.936,61.792z"/>
<path fill="#00A94F" d="M221.521,60.374c-0.023,0-0.045-0.019-0.047-0.044c-0.006-0.07,0.024-0.139,0.05-0.206
	c0.021-0.049,0.041-0.097,0.046-0.141c0.015-0.156,0.01-0.328,0.004-0.492l-0.004-0.1c-0.005-0.122-0.013-0.262-0.056-0.385
	c-0.01-0.024-0.025-0.05-0.04-0.077c-0.028-0.052-0.062-0.112-0.061-0.179c0.001-0.027,0.023-0.048,0.051-0.047
	c0.024,0.001,0.047,0.023,0.044,0.051c-0.001,0.04,0.025,0.083,0.051,0.128c0.016,0.03,0.033,0.061,0.045,0.093
	c0.046,0.135,0.056,0.284,0.062,0.413l0.004,0.099c0.005,0.168,0.013,0.342-0.004,0.506c-0.006,0.059-0.029,0.114-0.052,0.168
	c-0.024,0.059-0.049,0.114-0.044,0.161c0.001,0.026-0.018,0.049-0.046,0.051C221.522,60.373,221.521,60.374,221.521,60.374z"/>
<path fill="#00A94F" d="M218.127,61.046c-0.027,0-0.049-0.02-0.049-0.046c0-0.026,0.021-0.047,0.049-0.047
	c0.172,0,0.351-0.023,0.503-0.062c0.089-0.023,0.178-0.042,0.269-0.062c0.189-0.042,0.383-0.083,0.559-0.157
	c0.216-0.093,0.371-0.21,0.544-0.42c0.036-0.044,0.071-0.091,0.106-0.138c0.04-0.051,0.08-0.103,0.121-0.153
	c0.017-0.021,0.039-0.042,0.062-0.064c0.052-0.054,0.111-0.112,0.112-0.167c0.003-0.026,0.026-0.046,0.052-0.045
	c0.025,0.002,0.047,0.023,0.045,0.049c-0.002,0.089-0.077,0.162-0.142,0.229c-0.021,0.021-0.041,0.038-0.056,0.057
	c-0.041,0.05-0.079,0.1-0.117,0.151c-0.037,0.047-0.073,0.095-0.111,0.142c-0.183,0.221-0.344,0.347-0.58,0.446
	c-0.184,0.076-0.383,0.12-0.574,0.162c-0.089,0.02-0.177,0.039-0.266,0.062C218.491,61.023,218.312,61.046,218.127,61.046
	L218.127,61.046z"/>
<path fill="#00A94F" d="M219.442,59.329c-0.014,0-0.026-0.006-0.037-0.018c-0.017-0.02-0.016-0.05,0.006-0.067
	c0.097-0.084-0.078-0.394-0.16-0.542c-0.024-0.044-0.047-0.082-0.057-0.106c-0.066-0.141-0.121-0.271-0.178-0.409
	c-0.023-0.057-0.048-0.115-0.074-0.173c-0.009-0.026,0.002-0.054,0.026-0.064c0.024-0.01,0.054,0.002,0.063,0.025
	c0.026,0.059,0.05,0.118,0.073,0.175c0.057,0.137,0.111,0.267,0.176,0.405c0.011,0.023,0.029,0.059,0.052,0.1
	c0.12,0.211,0.295,0.527,0.141,0.661C219.465,59.325,219.455,59.329,219.442,59.329z"/>
<path fill="#00A94F" d="M216.825,59.965c-0.022,0-0.042-0.016-0.047-0.039c-0.005-0.025,0.01-0.052,0.038-0.057
	c0.056-0.01,0.11-0.021,0.165-0.033c0.198-0.039,0.404-0.079,0.609-0.142c0.259-0.081,0.484-0.181,0.667-0.299l0.034-0.02
	c0.118-0.076,0.339-0.215,0.35-0.34c0.002-0.026,0.026-0.046,0.053-0.043c0.027,0.002,0.047,0.024,0.043,0.052
	c-0.015,0.171-0.245,0.317-0.395,0.413l-0.033,0.02c-0.188,0.124-0.425,0.227-0.691,0.31c-0.209,0.064-0.418,0.106-0.618,0.145
	c-0.057,0.011-0.11,0.021-0.166,0.032C216.832,59.965,216.828,59.965,216.825,59.965z"/>
<path fill="#00A94F" d="M217.493,58.63c-0.023,0-0.046-0.021-0.046-0.047c0-0.163-0.009-0.3-0.026-0.433
	c-0.014-0.097-0.044-0.164-0.08-0.24c-0.019-0.042-0.039-0.086-0.058-0.14c-0.01-0.025,0.003-0.053,0.026-0.062
	c0.025-0.009,0.054,0.003,0.063,0.029c0.019,0.049,0.038,0.091,0.058,0.133c0.034,0.081,0.069,0.157,0.086,0.267
	c0.018,0.136,0.025,0.278,0.025,0.445C217.541,58.609,217.521,58.63,217.493,58.63z"/>
<path fill="#00A94F" d="M215.665,58.991c-0.02,0-0.036-0.01-0.043-0.028c-0.009-0.022,0.003-0.049,0.025-0.058
	c0.047-0.019,0.103-0.023,0.153-0.028c0.043-0.003,0.081-0.007,0.116-0.017c0.122-0.035,0.228-0.074,0.315-0.118
	c0.109-0.056,0.176-0.141,0.247-0.233c0.046-0.059,0.094-0.121,0.154-0.175c0.018-0.017,0.048-0.016,0.064,0.003
	c0.019,0.018,0.015,0.046-0.003,0.063c-0.055,0.049-0.102,0.108-0.145,0.164c-0.073,0.095-0.149,0.194-0.277,0.257
	c-0.091,0.047-0.205,0.089-0.332,0.125c-0.042,0.011-0.088,0.016-0.131,0.021c-0.049,0.003-0.096,0.008-0.131,0.022
	C215.675,58.991,215.669,58.991,215.665,58.991z"/>
<path fill="#00A94F" d="M216.096,58.223c-0.021,0-0.04-0.014-0.046-0.035c-0.021-0.074-0.023-0.153-0.026-0.228
	c-0.003-0.068-0.006-0.134-0.02-0.195c-0.024-0.094-0.069-0.184-0.138-0.27c-0.016-0.021-0.011-0.052,0.01-0.068
	c0.021-0.016,0.05-0.012,0.067,0.009c0.075,0.097,0.124,0.197,0.152,0.306c0.017,0.072,0.021,0.144,0.023,0.214
	c0.002,0.074,0.005,0.142,0.022,0.206c0.008,0.025-0.006,0.052-0.032,0.058C216.104,58.221,216.1,58.223,216.096,58.223z"/>
<path fill="#00A94F" d="M214.77,58.307c-0.02,0-0.036-0.012-0.045-0.032c-0.009-0.024,0.003-0.052,0.028-0.062
	c0.054-0.021,0.108-0.03,0.162-0.038c0.061-0.009,0.117-0.018,0.168-0.044c0.026-0.014,0.063-0.059,0.098-0.099
	c0.064-0.078,0.126-0.152,0.197-0.135c0.027,0.007,0.042,0.033,0.035,0.057c-0.005,0.026-0.03,0.042-0.056,0.036
	c-0.021,0.005-0.075,0.069-0.105,0.104c-0.043,0.05-0.083,0.099-0.124,0.122c-0.066,0.034-0.135,0.043-0.199,0.053
	c-0.051,0.009-0.098,0.016-0.143,0.033C214.782,58.306,214.775,58.307,214.77,58.307z"/>
<path fill="#00A94F" d="M214.591,57.712c-0.016,0-0.033-0.008-0.042-0.021c-0.012-0.02-0.004-0.045,0.016-0.058
	c0.025-0.033,0.027-0.217-0.003-0.271c-0.013-0.021-0.005-0.048,0.019-0.059c0.022-0.011,0.051-0.003,0.064,0.017
	c0.046,0.078,0.058,0.34-0.031,0.387C214.606,57.709,214.599,57.712,214.591,57.712z"/>
<path fill="#00A94F" d="M213.866,57.742c-0.009,0-0.02-0.004-0.026-0.012c-0.019-0.017-0.02-0.043-0.003-0.062
	c0.017-0.015,0.027-0.054,0.042-0.088c0.023-0.063,0.046-0.121,0.094-0.131c0.022-0.004,0.045,0.013,0.05,0.037
	c0.002,0.022-0.011,0.042-0.031,0.049c-0.01,0.01-0.025,0.052-0.035,0.077c-0.017,0.044-0.034,0.089-0.06,0.117
	C213.888,57.738,213.878,57.742,213.866,57.742z"/>
<path fill="#00A94F" d="M240.301,77.675c2.972-6.793-4.116-8.998-8.844-9.214c-3.824-0.175-5.961-0.574-5.961-0.574
	S237.714,73.541,240.301,77.675"/>
<path fill="#00A94F" d="M240.301,77.675c-10.427,3.941-14.805-9.788-14.805-9.788S238.627,73.278,240.301,77.675"/>
<path fill="#00853F" d="M240.172,77.679c-0.018,0-0.033-0.005-0.049-0.016c-0.183-0.112-0.344-0.261-0.501-0.4
	c-0.112-0.102-0.229-0.207-0.35-0.297c-0.233-0.172-0.489-0.329-0.736-0.481c-0.168-0.101-0.338-0.207-0.5-0.314
	c-0.098-0.063-0.189-0.131-0.285-0.196c-0.125-0.09-0.252-0.183-0.382-0.262c-0.134-0.084-0.261-0.176-0.383-0.267
	c-0.112-0.079-0.228-0.164-0.343-0.239c-0.117-0.076-0.244-0.146-0.365-0.215c-0.146-0.081-0.295-0.165-0.435-0.259
	c-0.092-0.06-0.17-0.129-0.248-0.197c-0.074-0.065-0.147-0.126-0.226-0.181c-0.078-0.051-0.157-0.092-0.242-0.138
	c-0.091-0.048-0.185-0.098-0.272-0.158c-0.566-0.389-1.159-0.753-1.734-1.107c-0.304-0.187-0.62-0.383-0.927-0.577
	c-0.416-0.265-0.886-0.505-1.525-0.779c-0.645-0.275-1.252-0.662-1.76-1.002c-0.217-0.146-0.437-0.289-0.655-0.435
	c-0.197-0.131-0.396-0.263-0.597-0.394c-0.048-0.033-0.098-0.066-0.147-0.099c-0.21-0.136-0.423-0.275-0.604-0.442
	c-0.116-0.108-0.215-0.235-0.311-0.354c-0.072-0.091-0.146-0.186-0.226-0.268c-0.086-0.09-0.169-0.154-0.287-0.224
	c-0.041-0.023-0.084-0.056-0.13-0.087c-0.088-0.065-0.199-0.146-0.272-0.15c-0.053-0.003-0.093-0.048-0.09-0.102
	c0.004-0.052,0.05-0.092,0.103-0.091c0.125,0.008,0.257,0.103,0.371,0.186c0.044,0.03,0.083,0.06,0.115,0.08
	c0.135,0.078,0.23,0.154,0.329,0.255c0.086,0.09,0.162,0.188,0.236,0.281c0.095,0.122,0.185,0.235,0.292,0.333
	c0.168,0.157,0.377,0.292,0.576,0.423c0.053,0.033,0.102,0.066,0.152,0.1c0.198,0.132,0.396,0.263,0.595,0.394
	c0.219,0.146,0.438,0.289,0.657,0.437c0.502,0.334,1.1,0.714,1.727,0.984c0.651,0.278,1.128,0.523,1.555,0.792
	c0.304,0.195,0.62,0.39,0.924,0.578c0.575,0.353,1.172,0.721,1.742,1.112c0.078,0.054,0.162,0.1,0.252,0.146
	c0.085,0.045,0.175,0.091,0.26,0.147c0.091,0.061,0.169,0.13,0.246,0.196c0.075,0.065,0.147,0.128,0.228,0.181
	c0.135,0.091,0.28,0.172,0.421,0.254c0.125,0.068,0.254,0.141,0.377,0.219c0.119,0.079,0.238,0.163,0.349,0.246
	c0.123,0.087,0.246,0.178,0.374,0.257c0.133,0.084,0.264,0.18,0.393,0.27c0.092,0.065,0.185,0.132,0.278,0.192
	c0.158,0.107,0.328,0.21,0.493,0.313c0.252,0.152,0.515,0.312,0.752,0.49c0.128,0.093,0.249,0.202,0.364,0.308
	c0.157,0.144,0.307,0.277,0.474,0.383c0.044,0.027,0.057,0.086,0.031,0.132C240.236,77.661,240.205,77.679,240.172,77.679z"/>
<path fill="#00853F" d="M239.401,77.005c-0.016,0-0.029-0.002-0.045-0.011c-0.046-0.024-0.065-0.083-0.039-0.129
	c0.05-0.101,0.134-0.156,0.209-0.206c0.06-0.042,0.111-0.079,0.146-0.133c0.051-0.089,0.086-0.267,0.097-0.325
	c0.073-0.379,0.123-0.825,0.156-1.405c0.01-0.157,0.023-0.313,0.037-0.468c0.03-0.338,0.058-0.658,0.045-1.001
	c-0.007-0.185-0.025-0.375-0.043-0.558l-0.006-0.066c-0.003-0.044-0.017-0.091-0.028-0.144c-0.021-0.084-0.043-0.17-0.034-0.258
	c0.004-0.053,0.051-0.092,0.104-0.088c0.052,0.007,0.09,0.053,0.086,0.106c-0.006,0.055,0.011,0.122,0.029,0.192
	c0.013,0.056,0.028,0.113,0.034,0.172l0.006,0.065c0.018,0.187,0.037,0.38,0.044,0.57c0.012,0.355-0.018,0.697-0.048,1.026
	c-0.012,0.151-0.024,0.306-0.035,0.462c-0.035,0.588-0.084,1.041-0.159,1.429c-0.023,0.126-0.06,0.282-0.122,0.388
	c-0.056,0.093-0.134,0.147-0.202,0.192c-0.063,0.044-0.118,0.08-0.146,0.137C239.469,76.987,239.436,77.005,239.401,77.005z"/>
<path fill="#00853F" d="M237.441,75.66c-0.022,0-0.045-0.009-0.063-0.024c-0.039-0.037-0.044-0.104-0.01-0.147
	c0.068-0.092,0.076-0.199,0.086-0.326c0.004-0.043,0.007-0.086,0.013-0.129c0.026-0.207,0.075-0.409,0.123-0.604
	c0.02-0.083,0.04-0.166,0.058-0.251c0.198-0.904,0.224-1.836,0.224-2.545c0-0.419-0.01-0.656-0.223-1.011
	c-0.03-0.048-0.017-0.114,0.027-0.146c0.045-0.032,0.103-0.019,0.131,0.03c0.244,0.404,0.256,0.689,0.256,1.126
	c0,0.721-0.025,1.667-0.231,2.595c-0.017,0.085-0.038,0.169-0.058,0.254c-0.048,0.198-0.094,0.385-0.118,0.583
	c-0.004,0.038-0.008,0.078-0.01,0.116c-0.013,0.141-0.024,0.3-0.13,0.441C237.497,75.647,237.47,75.66,237.441,75.66z"/>
<path fill="#00853F" d="M235.574,77.025c-0.381,0-0.771-0.014-1.15-0.079c-0.105-0.021-0.214-0.035-0.319-0.051
	c-0.142-0.018-0.288-0.038-0.426-0.067c-0.041-0.01-0.085-0.02-0.127-0.032c-0.101-0.024-0.207-0.053-0.295-0.047
	c-0.054,0.004-0.098-0.038-0.1-0.09c-0.004-0.053,0.036-0.099,0.088-0.103c0.122-0.007,0.238,0.022,0.354,0.054
	c0.041,0.012,0.081,0.021,0.119,0.03c0.13,0.025,0.267,0.046,0.411,0.066c0.106,0.014,0.219,0.028,0.326,0.049
	c0.475,0.084,0.968,0.079,1.447,0.076c0.119-0.001,0.239-0.002,0.361-0.002c0.001,0,0.003,0,0.004,0
	c0.457,0,0.919-0.104,1.312-0.207c0.096-0.023,0.182-0.059,0.275-0.096c0.065-0.026,0.136-0.052,0.207-0.075
	c0.035-0.013,0.068-0.02,0.104-0.027c0.05-0.011,0.095-0.022,0.141-0.046c0.017-0.009,0.032-0.019,0.047-0.033
	c0.036-0.028,0.082-0.063,0.155-0.076c0.051-0.009,0.102,0.026,0.111,0.078c0.008,0.054-0.027,0.102-0.079,0.112
	c-0.026,0.004-0.039,0.014-0.068,0.038c-0.021,0.017-0.045,0.036-0.077,0.052c-0.068,0.036-0.132,0.05-0.188,0.062
	c-0.03,0.007-0.061,0.013-0.089,0.022c-0.066,0.021-0.129,0.047-0.196,0.073c-0.093,0.036-0.19,0.076-0.294,0.104
	c-0.405,0.103-0.882,0.21-1.361,0.21c-0.012,0-0.022,0-0.034,0c-0.109,0-0.221,0.003-0.329,0.003
	C235.794,77.024,235.685,77.025,235.574,77.025z"/>
<path fill="#00853F" d="M235.682,74.458c-0.053,0-0.096-0.046-0.096-0.103c0-0.23,0.003-0.463,0.007-0.696
	c0.016-0.795,0.03-1.617-0.124-2.376c-0.069-0.345-0.191-0.734-0.335-1.071c-0.035-0.087-0.081-0.175-0.126-0.267
	c-0.095-0.182-0.192-0.372-0.234-0.577c-0.009-0.057,0.022-0.111,0.074-0.125c0.053-0.01,0.104,0.026,0.115,0.082
	c0.035,0.177,0.124,0.352,0.212,0.522c0.046,0.09,0.094,0.185,0.135,0.279c0.148,0.349,0.273,0.755,0.346,1.112
	c0.159,0.782,0.145,1.618,0.129,2.423c-0.003,0.232-0.008,0.464-0.008,0.693C235.776,74.412,235.735,74.458,235.682,74.458z"/>
<path fill="#00853F" d="M233.53,73.063c-0.009,0-0.018-0.001-0.027-0.004c-0.05-0.016-0.08-0.071-0.065-0.126
	c0.191-0.691,0.252-1.518,0.172-2.327c-0.031-0.306-0.144-0.692-0.24-0.94l-0.031-0.081c-0.072-0.187-0.181-0.47-0.287-0.599
	c-0.032-0.042-0.028-0.107,0.011-0.143c0.039-0.037,0.099-0.033,0.136,0.01c0.124,0.153,0.236,0.442,0.317,0.653l0.031,0.081
	c0.103,0.262,0.219,0.671,0.254,0.997c0.083,0.846,0.021,1.679-0.178,2.405C233.609,73.034,233.571,73.063,233.53,73.063z"/>
<path fill="#00853F" d="M231.332,71.814c-0.053,0-0.097-0.043-0.097-0.097c0-0.584-0.016-1.108-0.234-1.613
	c-0.019-0.043-0.041-0.092-0.066-0.146c-0.153-0.34-0.362-0.806-0.318-1.115c0.007-0.053,0.056-0.089,0.107-0.081
	c0.052,0.007,0.09,0.055,0.081,0.109c-0.034,0.251,0.178,0.724,0.306,1.008c0.024,0.055,0.047,0.103,0.066,0.147
	c0.231,0.54,0.251,1.107,0.251,1.691C231.428,71.771,231.385,71.814,231.332,71.814z"/>
<path fill="#00853F" d="M228.799,70.396c-0.05,0-0.091-0.037-0.096-0.088c-0.018-0.179,0.044-0.354,0.104-0.524
	c0.04-0.118,0.077-0.229,0.089-0.337c0.028-0.274-0.021-0.508-0.157-0.76c-0.024-0.047-0.009-0.105,0.038-0.13
	c0.047-0.026,0.103-0.008,0.13,0.038c0.154,0.283,0.211,0.56,0.18,0.872c-0.015,0.129-0.057,0.258-0.101,0.381
	c-0.055,0.156-0.106,0.305-0.093,0.443c0.006,0.052-0.032,0.1-0.084,0.105C228.805,70.396,228.802,70.396,228.799,70.396z"/>
<path fill="#00853F" d="M227.048,70.049c-0.188,0-0.377-0.035-0.549-0.147c-0.043-0.028-0.054-0.087-0.03-0.134
	c0.025-0.045,0.082-0.058,0.123-0.031c0.259,0.17,0.577,0.123,0.888,0.077c0.143-0.02,0.288-0.042,0.427-0.042l0,0
	c0.049,0,0.088,0.043,0.088,0.097c0,0.053-0.039,0.096-0.088,0.096l0,0l0,0c-0.126,0-0.259,0.02-0.402,0.04
	C227.359,70.026,227.203,70.049,227.048,70.049z"/>
<path fill="#00853F" d="M231.879,75.713c-0.313,0-0.631-0.016-0.943-0.055c-0.052-0.006-0.087-0.054-0.08-0.106
	c0.004-0.053,0.053-0.091,0.103-0.084c0.854,0.106,1.731,0.031,2.579-0.042l0.308-0.026c0.22-0.019,0.443-0.029,0.657-0.038
	c0.282-0.011,0.57-0.024,0.854-0.058c0.034-0.003,0.072-0.006,0.113-0.011c0.277-0.026,0.744-0.07,0.851-0.32
	c0.021-0.05,0.075-0.071,0.122-0.051s0.069,0.079,0.049,0.127c-0.149,0.356-0.664,0.404-1.005,0.437
	c-0.04,0.003-0.075,0.007-0.11,0.012c-0.289,0.031-0.583,0.045-0.865,0.057c-0.214,0.009-0.434,0.021-0.652,0.038l-0.306,0.025
	C233.004,75.666,232.44,75.713,231.879,75.713z"/>
<path fill="#00853F" d="M231.06,74.436c-0.182,0-0.365,0-0.547-0.002c-0.481-0.005-1.084-0.047-1.46-0.332
	c-0.043-0.032-0.052-0.092-0.02-0.134c0.031-0.043,0.091-0.051,0.134-0.02c0.333,0.251,0.895,0.289,1.347,0.294
	c0.361,0.002,0.729,0.001,1.083,0.001c0.209,0,0.419-0.001,0.626-0.001c0.005,0,0.009,0,0.012,0c0.348,0,0.755-0.018,1.152-0.134
	l0.036-0.014c0.29-0.085,0.722-0.215,0.889-0.461c0.029-0.042,0.089-0.055,0.135-0.024c0.042,0.028,0.054,0.091,0.024,0.135
	c-0.206,0.303-0.66,0.437-0.991,0.536l-0.04,0.011c-0.419,0.125-0.843,0.143-1.205,0.143c-0.032,0-0.065,0-0.096,0
	c-0.182,0-0.361,0.001-0.54,0.001C231.419,74.436,231.241,74.436,231.06,74.436z"/>
<path fill="#00853F" d="M229.261,73.097c-0.338,0-0.657-0.043-0.856-0.196c-0.041-0.033-0.048-0.093-0.019-0.135
	c0.032-0.043,0.092-0.052,0.132-0.019c0.271,0.208,0.906,0.159,1.371,0.126c0.161-0.015,0.312-0.029,0.433-0.026h0.024
	c0.016,0,0.028,0,0.043,0c1.414,0,1.73-0.229,1.799-0.331c0.03-0.043,0.035-0.086,0.016-0.142c-0.017-0.05,0.011-0.104,0.06-0.123
	c0.048-0.018,0.102,0.009,0.12,0.061c0.038,0.114,0.023,0.222-0.043,0.315c-0.191,0.275-0.847,0.412-1.951,0.412
	c-0.015,0-0.027,0-0.043,0h-0.024c0,0-0.001,0-0.002,0c-0.111,0-0.259,0.013-0.416,0.023
	C229.698,73.078,229.477,73.097,229.261,73.097z"/>
<path fill="#00853F" d="M228.663,71.752c-0.155,0-0.309-0.028-0.455-0.058c-0.173-0.031-0.336-0.063-0.501-0.049
	c-0.052,0.003-0.1-0.035-0.103-0.088c-0.005-0.053,0.032-0.1,0.087-0.104c0.189-0.016,0.373,0.019,0.551,0.053
	c0.188,0.035,0.366,0.069,0.55,0.044l0.024-0.003c0.393-0.052,0.984-0.13,1.256-0.38c0.039-0.037,0.098-0.035,0.134,0.003
	c0.036,0.04,0.033,0.101-0.006,0.137c-0.314,0.295-0.941,0.377-1.357,0.432l-0.026,0.002
	C228.766,71.75,228.715,71.752,228.663,71.752z"/>
<path d="M177.274,81.652c-0.096,0.121-0.272,0.394-0.525,0.816c-1.063,1.792-1.658,2.688-1.784,2.688
	c-0.191,0-0.344-0.104-0.462-0.313c-0.119-0.21-0.279-0.763-0.486-1.662c-0.207-0.898-0.38-1.758-0.523-2.577
	c-0.055-0.231-0.105-0.421-0.155-0.568c-0.071-0.197-0.105-0.343-0.105-0.442c0-0.101,0.04-0.194,0.125-0.277
	c0.081-0.082,0.174-0.123,0.273-0.123c0.124,0,0.232,0.088,0.322,0.265c0.091,0.177,0.193,0.607,0.306,1.293
	c0.241,1.483,0.488,2.606,0.738,3.366c0.704-1.049,1.138-1.718,1.31-2.001c0.17-0.285,0.412-0.746,0.724-1.382
	c0.082-0.139,0.192-0.21,0.336-0.21c0.063,0,0.133,0.058,0.21,0.172c0.08,0.115,0.216,0.429,0.413,0.945
	c0.488,1.274,0.82,2.037,0.997,2.295c0.987-1.532,1.559-3.116,1.72-4.76c0-0.037,0.038-0.088,0.111-0.152
	c0.074-0.064,0.146-0.095,0.212-0.095c0.226,0,0.337,0.133,0.337,0.4c0,0.278-0.076,0.696-0.225,1.252
	c-0.151,0.557-0.331,1.068-0.54,1.537c-0.208,0.47-0.559,1.185-1.054,2.143c-0.08,0.156-0.148,0.294-0.204,0.413
	c-0.028,0.051-0.082,0.093-0.164,0.127c-0.079,0.034-0.142,0.053-0.191,0.053c-0.119,0-0.24-0.062-0.364-0.185
	c-0.124-0.127-0.312-0.488-0.563-1.087c-0.254-0.601-0.436-1.054-0.547-1.355C177.436,82.021,177.354,81.827,177.274,81.652z"/>
<path d="M185.392,83.436c0,0.266-0.254,0.59-0.76,0.969c-0.506,0.377-1.028,0.568-1.565,0.568c-0.452,0-0.802-0.125-1.046-0.376
	c-0.246-0.249-0.367-0.597-0.367-1.044c0-0.751,0.27-1.467,0.811-2.145c0.542-0.678,1.133-1.018,1.774-1.018
	c0.211,0,0.383,0.063,0.517,0.192c0.132,0.129,0.199,0.284,0.199,0.466c0,0.406-0.212,0.792-0.635,1.163
	c-0.425,0.371-0.99,0.733-1.699,1.093c-0.147,0.069-0.219,0.162-0.219,0.276c0,0.218,0.066,0.392,0.2,0.523
	c0.136,0.133,0.336,0.198,0.599,0.198c0.603,0,1.218-0.313,1.846-0.94c0.093-0.086,0.162-0.128,0.211-0.128
	C185.346,83.234,185.392,83.301,185.392,83.436z M182.468,82.819c1.189-0.662,1.783-1.194,1.783-1.597
	c0-0.158-0.075-0.236-0.226-0.236c-0.26,0-0.549,0.177-0.874,0.531C182.828,81.873,182.601,82.307,182.468,82.819z"/>
<path d="M187.04,82.528c0.358-0.613,0.788-1.109,1.285-1.49c0.5-0.379,0.95-0.568,1.352-0.568c0.221,0,0.409,0.096,0.563,0.287
	c0.153,0.194,0.231,0.427,0.231,0.703c0,0.815-0.329,1.584-0.987,2.301c-0.656,0.717-1.352,1.073-2.083,1.073
	c-0.198,0-0.382-0.052-0.549-0.151c-0.166-0.102-0.261-0.228-0.28-0.38c-0.012-0.125-0.049-0.216-0.113-0.277
	c-0.121-0.111-0.18-0.233-0.18-0.362c0-0.239,0.068-0.751,0.21-1.534l0.434-2.356c0.148-0.791,0.256-1.281,0.326-1.466
	c0.067-0.188,0.145-0.313,0.229-0.377c0.084-0.063,0.187-0.095,0.311-0.095c0.196,0,0.296,0.161,0.296,0.478
	c0,0.303-0.109,0.727-0.325,1.271C187.551,80.106,187.312,81.087,187.04,82.528z M186.938,83.841
	c0.146,0.254,0.324,0.382,0.531,0.382c0.318,0,0.657-0.123,1.013-0.374c0.356-0.247,0.663-0.598,0.923-1.047
	c0.26-0.451,0.391-0.831,0.391-1.14c0-0.141-0.029-0.26-0.081-0.361c-0.055-0.1-0.122-0.149-0.202-0.149
	c-0.391,0-0.865,0.298-1.427,0.897C187.523,82.647,187.141,83.244,186.938,83.841z"/>
<path d="M192.052,82.528c0.36-0.613,0.789-1.109,1.288-1.49c0.499-0.379,0.95-0.568,1.352-0.568c0.22,0,0.408,0.096,0.561,0.287
	c0.155,0.194,0.234,0.427,0.234,0.703c0,0.815-0.329,1.584-0.987,2.301s-1.353,1.073-2.085,1.073c-0.199,0-0.383-0.052-0.548-0.151
	c-0.166-0.102-0.26-0.228-0.28-0.38c-0.011-0.125-0.049-0.216-0.115-0.277c-0.118-0.111-0.178-0.233-0.178-0.362
	c0-0.239,0.069-0.751,0.208-1.534l0.436-2.356c0.147-0.791,0.256-1.281,0.324-1.466c0.068-0.188,0.146-0.313,0.23-0.377
	c0.083-0.063,0.188-0.095,0.311-0.095c0.196,0,0.294,0.161,0.294,0.478c0,0.303-0.107,0.727-0.323,1.271
	C192.564,80.106,192.326,81.087,192.052,82.528z M191.952,83.841c0.146,0.254,0.322,0.382,0.529,0.382
	c0.32,0,0.658-0.123,1.014-0.374c0.356-0.247,0.665-0.598,0.923-1.047c0.26-0.451,0.389-0.831,0.389-1.14
	c0-0.141-0.025-0.26-0.079-0.361c-0.053-0.1-0.12-0.149-0.203-0.149c-0.388,0-0.864,0.298-1.427,0.897
	C192.536,82.647,192.154,83.244,191.952,83.841z"/>
<path d="M199.266,83.055c-0.359,0.566-0.726,1.004-1.103,1.314c-0.375,0.311-0.725,0.465-1.046,0.465
	c-0.186,0-0.374-0.101-0.567-0.303c-0.191-0.204-0.287-0.515-0.287-0.935c0-0.346,0.088-0.852,0.264-1.521
	c0.15-0.562,0.226-0.952,0.226-1.179c0.08-0.16,0.207-0.237,0.382-0.237c0.118,0,0.212,0.039,0.282,0.116
	c0.069,0.077,0.104,0.158,0.104,0.241c0,0.185-0.069,0.447-0.206,0.786c-0.26,0.66-0.392,1.226-0.392,1.699
	c0,0.432,0.107,0.646,0.319,0.646c0.272,0,0.618-0.217,1.041-0.649c0.419-0.434,0.778-1.039,1.079-1.814
	c0.118-0.312,0.215-0.514,0.288-0.605c0.075-0.093,0.175-0.141,0.301-0.141c0.189,0,0.287,0.118,0.287,0.355
	c0,0.029-0.027,0.125-0.082,0.286c-0.168,0.577-0.251,1.122-0.251,1.633c0,0.615,0.107,1.013,0.324,1.196
	c0.111,0.096,0.168,0.177,0.168,0.235c0,0.074-0.058,0.141-0.171,0.199c-0.112,0.063-0.217,0.092-0.309,0.092
	c-0.195,0-0.354-0.135-0.476-0.41c-0.12-0.271-0.181-0.677-0.181-1.21v-0.13C199.262,83.144,199.263,83.1,199.266,83.055z"/>
<path d="M203.262,80.793c0.289-0.021,0.56-0.046,0.815-0.074c0.253-0.027,0.463-0.041,0.632-0.041c0.212,0,0.347,0.02,0.402,0.057
	c0.058,0.036,0.084,0.102,0.084,0.193c0,0.213-0.157,0.327-0.476,0.347c-0.406,0.023-0.779,0.057-1.121,0.098
	c-0.344,0.042-0.528,0.077-0.554,0.105c-0.026,0.026-0.112,0.339-0.254,0.938c-0.143,0.598-0.215,0.985-0.215,1.166
	c0,0.29,0.04,0.481,0.121,0.576c0.083,0.098,0.203,0.146,0.366,0.146c0.242,0,0.576-0.171,1.006-0.51
	c0.165-0.139,0.291-0.208,0.383-0.208c0.119,0,0.181,0.06,0.181,0.18c0,0.19-0.195,0.436-0.582,0.735
	c-0.389,0.302-0.787,0.452-1.192,0.452c-0.68,0-1.019-0.374-1.019-1.124c0-0.27,0.07-0.69,0.21-1.257
	c0.137-0.565,0.207-0.905,0.207-1.017c0-0.041-0.034-0.06-0.101-0.06l-0.438,0.036c-0.358,0-0.538-0.136-0.538-0.403
	c0-0.152,0.082-0.229,0.247-0.229h0.868c0.058,0,0.109-0.024,0.154-0.075c0.045-0.049,0.112-0.218,0.199-0.502
	c0.085-0.285,0.163-0.566,0.229-0.845c0.068-0.277,0.2-0.415,0.396-0.415c0.119,0,0.215,0.039,0.281,0.117
	c0.067,0.08,0.103,0.153,0.103,0.222c0,0.037-0.053,0.225-0.152,0.563L203.262,80.793z"/>
<path d="M206.396,84.818c0.004-0.152-0.115-0.547-0.359-1.185c-0.462-1.184-0.694-2.009-0.694-2.474
	c0-0.371,0.133-0.556,0.396-0.556c0.256,0,0.386,0.164,0.386,0.497c0,0.27,0.011,0.477,0.028,0.624
	c0.018,0.146,0.085,0.413,0.2,0.801c0.114,0.387,0.24,0.747,0.378,1.076c0.069,0.175,0.119,0.308,0.151,0.398
	c0.059-0.084,0.135-0.198,0.226-0.347c0.494-0.778,0.888-1.376,1.18-1.797c0.296-0.42,0.533-0.727,0.718-0.919
	c0.186-0.191,0.322-0.307,0.408-0.345c0.088-0.036,0.176-0.057,0.267-0.057c0.108,0,0.195,0.037,0.258,0.109
	c0.063,0.074,0.095,0.158,0.095,0.253c0,0.124-0.114,0.258-0.344,0.401c-0.217,0.139-0.536,0.48-0.956,1.03
	c-0.422,0.549-0.875,1.25-1.363,2.101c-0.248,0.433-0.441,0.647-0.575,0.647C206.676,85.079,206.544,84.991,206.396,84.818z"/>
<path d="M213.889,83.436c0,0.266-0.253,0.59-0.759,0.969c-0.507,0.377-1.029,0.568-1.566,0.568c-0.452,0-0.8-0.125-1.045-0.376
	c-0.246-0.249-0.368-0.597-0.368-1.044c0-0.751,0.271-1.467,0.813-2.145c0.539-0.678,1.131-1.018,1.773-1.018
	c0.212,0,0.382,0.063,0.515,0.192c0.134,0.129,0.199,0.284,0.199,0.466c0,0.406-0.211,0.792-0.636,1.163
	c-0.421,0.371-0.987,0.733-1.697,1.093c-0.146,0.069-0.219,0.162-0.219,0.276c0,0.218,0.067,0.392,0.202,0.523
	c0.134,0.133,0.333,0.198,0.597,0.198c0.603,0,1.218-0.313,1.845-0.94c0.094-0.086,0.164-0.128,0.212-0.128
	C213.844,83.234,213.889,83.301,213.889,83.436z M210.967,82.819c1.188-0.662,1.783-1.194,1.783-1.597
	c0-0.158-0.075-0.236-0.228-0.236c-0.258,0-0.549,0.177-0.873,0.531C211.326,81.873,211.098,82.307,210.967,82.819z"/>
<path d="M215.917,84.996c-0.422,0-0.744-0.113-0.97-0.34c-0.226-0.226-0.339-0.543-0.339-0.949c0-0.687,0.291-1.411,0.872-2.172
	c0.579-0.76,1.117-1.14,1.619-1.14c0.225,0,0.422,0.115,0.585,0.344c0.165,0.231,0.246,0.475,0.246,0.73
	c0,0.156-0.034,0.291-0.106,0.401c-0.071,0.111-0.145,0.168-0.217,0.168c-0.163,0-0.278-0.154-0.345-0.462
	c-0.076-0.331-0.185-0.497-0.328-0.497c-0.292,0-0.637,0.325-1.035,0.975c-0.398,0.648-0.598,1.196-0.598,1.644
	s0.272,0.671,0.812,0.671c0.413,0,0.897-0.183,1.456-0.544c0.197-0.13,0.34-0.192,0.433-0.192c0.096,0,0.144,0.051,0.144,0.152
	c0,0.2-0.252,0.452-0.753,0.755C216.892,84.844,216.398,84.996,215.917,84.996z"/>
<path d="M219.949,82.93c0.037-0.045,0.289-0.256,0.753-0.636c0.44-0.359,0.749-0.621,0.924-0.782
	c0.646-0.607,1.111-0.912,1.396-0.912c0.219,0,0.325,0.099,0.325,0.297c0,0.224-0.105,0.386-0.322,0.491
	c-0.28,0.135-0.655,0.358-1.123,0.669s-0.703,0.532-0.703,0.661c0,0.052,0.168,0.248,0.497,0.589c0.331,0.34,0.617,0.59,0.857,0.754
	c0.241,0.159,0.475,0.242,0.704,0.242l0.138-0.006c0.098-0.004,0.146,0.036,0.146,0.123c0,0.115-0.077,0.231-0.231,0.354
	c-0.154,0.118-0.356,0.179-0.608,0.179c-0.163,0-0.329-0.054-0.493-0.159c-0.168-0.106-0.465-0.394-0.892-0.861
	c-0.339-0.387-0.55-0.617-0.635-0.692c-0.084-0.076-0.152-0.111-0.211-0.111c-0.03,0-0.129,0.067-0.294,0.204
	c-0.166,0.137-0.254,0.239-0.271,0.312c-0.015,0.07-0.021,0.342-0.021,0.812v0.187c0,0.096-0.051,0.183-0.148,0.261
	c-0.097,0.074-0.204,0.114-0.318,0.114c-0.119,0-0.212-0.034-0.279-0.098c-0.066-0.064-0.101-0.131-0.101-0.2
	c0-0.093,0.038-0.316,0.114-0.67c0.106-0.506,0.203-1.187,0.295-2.038c0.204-2.01,0.366-3.148,0.479-3.412s0.271-0.396,0.478-0.396
	c0.075,0,0.137,0.036,0.184,0.109c0.051,0.076,0.074,0.17,0.074,0.285c0,0.21-0.097,0.768-0.289,1.676
	C220.177,81.183,220.037,82.067,219.949,82.93z"/>
<path d="M225.699,78.096c0.203,0,0.302,0.123,0.302,0.364c0,0.216-0.121,0.728-0.365,1.538c-0.155,0.508-0.272,1.071-0.356,1.687
	c-0.084,0.614-0.125,1.097-0.125,1.446c0,0.434,0.027,0.864,0.088,1.293c0.01,0.081,0.015,0.141,0.015,0.179
	c0,0.131-0.047,0.241-0.143,0.339c-0.094,0.095-0.196,0.141-0.303,0.141c-0.147,0-0.252-0.086-0.308-0.259
	c-0.059-0.175-0.086-0.454-0.086-0.841c0-0.879,0.112-1.972,0.335-3.271c0.229-1.302,0.406-2.063,0.54-2.283
	C225.427,78.206,225.563,78.096,225.699,78.096z"/>
<path d="M227.496,83.895c0,0.2,0.028,0.425,0.088,0.676c0.011,0.046,0.016,0.086,0.016,0.117c0,0.049-0.046,0.108-0.139,0.184
	c-0.092,0.076-0.191,0.112-0.294,0.112c-0.271,0-0.407-0.233-0.407-0.702c0-0.482,0.106-1.247,0.32-2.293
	c0.071-0.367,0.108-0.589,0.108-0.674c0-0.167,0.032-0.308,0.096-0.426c0.065-0.115,0.156-0.175,0.274-0.175
	c0.144,0,0.255,0.032,0.338,0.098c0.083,0.064,0.124,0.137,0.124,0.214c0,0.079-0.02,0.183-0.058,0.312
	c-0.21,0.694-0.341,1.191-0.392,1.49C227.521,83.128,227.496,83.482,227.496,83.895z M228.045,79.493
	c-0.058,0-0.102-0.06-0.134-0.179c-0.011-0.037-0.024-0.077-0.045-0.121c-0.076-0.171-0.113-0.32-0.113-0.446
	c0-0.106,0.065-0.212,0.199-0.321c0.133-0.109,0.28-0.164,0.443-0.164c0.081,0,0.171,0.03,0.272,0.09
	c0.102,0.059,0.151,0.115,0.151,0.171c0,0.087-0.033,0.234-0.103,0.441c-0.069,0.208-0.179,0.347-0.329,0.42
	C228.238,79.457,228.124,79.493,228.045,79.493z"/>
<path d="M232.047,81.74c-0.146,0-0.307,0.087-0.479,0.268c-0.173,0.178-0.435,0.579-0.789,1.201
	c-0.465,0.837-0.766,1.312-0.901,1.427c-0.137,0.117-0.248,0.175-0.338,0.175c-0.332,0-0.498-0.15-0.498-0.449
	c0-0.127,0.023-0.306,0.068-0.536c0.153-0.795,0.23-1.631,0.23-2.511c0-0.101,0.047-0.212,0.138-0.335
	c0.09-0.121,0.176-0.183,0.259-0.183c0.146,0,0.25,0.043,0.31,0.126c0.062,0.085,0.094,0.254,0.094,0.509
	c0,0.265-0.083,0.813-0.252,1.641c-0.058,0.272-0.085,0.446-0.085,0.52c0,0.042,0.012,0.063,0.034,0.063
	c0.041,0,0.238-0.314,0.585-0.941c0.35-0.638,0.656-1.088,0.921-1.349c0.264-0.26,0.555-0.39,0.871-0.39
	c0.253,0,0.456,0.107,0.616,0.323c0.158,0.216,0.273,0.607,0.346,1.178c0.079,0.649,0.15,1.054,0.213,1.214
	c0.063,0.158,0.163,0.236,0.301,0.236c0.087,0,0.197-0.027,0.328-0.085c0.021-0.012,0.04-0.016,0.05-0.016
	c0.121,0,0.182,0.066,0.182,0.197c0,0.115-0.083,0.238-0.248,0.367c-0.167,0.13-0.365,0.196-0.599,0.196
	c-0.237,0-0.421-0.089-0.552-0.267c-0.13-0.178-0.232-0.65-0.31-1.421C232.464,82.125,232.299,81.74,232.047,81.74z"/>
<path d="M237.867,83.344c-0.035-0.023-0.129,0.05-0.282,0.221c-0.254,0.282-0.581,0.53-0.979,0.748
	c-0.396,0.22-0.764,0.329-1.103,0.329c-0.253,0-0.451-0.075-0.595-0.224c-0.141-0.148-0.215-0.354-0.215-0.617
	c0-0.407,0.165-0.861,0.493-1.361c0.328-0.501,0.787-0.938,1.378-1.312c0.59-0.373,1.106-0.561,1.55-0.561
	c0.232,0,0.438,0.063,0.613,0.189c0.043,0.032,0.078,0.059,0.109,0.08c0.051,0.033,0.099,0.103,0.145,0.206
	c0.043,0.104,0.066,0.188,0.066,0.251c0,0.039-0.016,0.1-0.046,0.182c-0.172,0.437-0.288,0.797-0.351,1.084
	c-0.061,0.286-0.129,0.77-0.202,1.446c-0.065,0.61-0.141,1.078-0.217,1.407c-0.079,0.328-0.22,0.646-0.426,0.955
	c-0.205,0.306-0.45,0.536-0.735,0.69s-0.581,0.23-0.883,0.23c-0.524,0-1.043-0.169-1.552-0.508
	c-0.512-0.339-0.767-0.611-0.767-0.815c0-0.129,0.054-0.192,0.155-0.192c0.052,0,0.201,0.077,0.45,0.231
	c0.66,0.412,1.252,0.618,1.779,0.618c0.461,0,0.81-0.229,1.049-0.689c0.241-0.46,0.404-1.147,0.489-2.062
	C237.815,83.663,237.839,83.487,237.867,83.344z M237.859,81.18c-0.24,0-0.537,0.115-0.895,0.347
	c-0.358,0.231-0.705,0.57-1.041,1.018c-0.336,0.446-0.506,0.822-0.506,1.123c0,0.102,0.036,0.182,0.104,0.243
	c0.067,0.06,0.145,0.088,0.228,0.088c0.25,0,0.576-0.121,0.979-0.364c0.402-0.24,0.749-0.576,1.038-1.006
	c0.292-0.43,0.435-0.767,0.435-1.011C238.202,81.325,238.088,81.18,237.859,81.18z"/>
<path fill="#141006" d="M181.41,60.985c-0.573,0.262-1.056,0.393-1.448,0.393c-0.278,0-0.633-0.095-1.064-0.283
	s-0.741-0.283-0.933-0.283c-0.34,0-0.633,0.156-0.875,0.47c-0.243,0.315-0.365,0.693-0.365,1.137c0,0.511,0.197,0.961,0.589,1.352
	c0.13,0.127,0.193,0.226,0.193,0.293c0,0.103-0.116,0.296-0.352,0.575c-0.234,0.28-0.435,0.419-0.6,0.419
	c-0.18,0-0.362-0.179-0.543-0.539c-0.18-0.359-0.271-0.727-0.271-1.104c0-0.987,0.342-1.899,1.022-2.74
	c0.682-0.84,1.42-1.26,2.216-1.26c0.305,0,0.682,0.101,1.134,0.306c0.452,0.204,0.779,0.306,0.981,0.306
	c0.308,0,0.583-0.15,0.817-0.448c0.085-0.098,0.159-0.146,0.227-0.146c0.068,0,0.18,0.03,0.336,0.091
	c0.158,0.061,0.236,0.129,0.236,0.202c0,0.054-0.144,0.299-0.433,0.734c-0.29,0.436-0.516,0.905-0.676,1.411
	c-0.16,0.506-0.31,1.257-0.45,2.255l-0.164,1.123c-0.31,2.228-0.675,3.794-1.098,4.699c-0.419,0.905-0.944,1.583-1.578,2.033
	c-0.631,0.449-1.313,0.676-2.045,0.676c-0.698,0-1.312-0.193-1.845-0.584c-0.535-0.391-0.802-0.825-0.802-1.307
	c0-0.237,0.174-0.538,0.525-0.899c0.352-0.362,0.604-0.543,0.759-0.543c0.243,0,0.365,0.231,0.365,0.694
	c0.017,1.296,0.363,1.944,1.046,1.944c1.058,0,1.757-1.431,2.097-4.292c0.151-1.223,0.372-2.291,0.663-3.201
	C179.367,63.559,180.146,62.398,181.41,60.985z M186.848,70.419c-0.619,0.775-1.166,1.343-1.635,1.701
	c-0.47,0.356-0.965,0.536-1.486,0.536c-0.532,0-0.973-0.23-1.319-0.694c-0.35-0.463-0.525-1.05-0.525-1.763
	c0-0.103,0.035-0.503,0.105-1.199c0.07-0.699,0.104-1.113,0.104-1.248c0-0.578-0.099-0.991-0.302-1.232
	c-0.063,0.012-0.157,0.018-0.286,0.018c-0.241,0-0.365-0.125-0.365-0.374c0-0.365,0.161-0.548,0.481-0.548l0.341,0.026
	c0.324,0,0.602-0.178,0.829-0.538c0.226-0.358,0.442-1.034,0.651-2.027c0.505-2.429,1.266-3.644,2.282-3.644
	c0.237,0,0.465,0.106,0.679,0.32c0.213,0.213,0.321,0.434,0.321,0.666c0,0.14-0.097,0.432-0.287,0.872
	c-0.192,0.442-0.341,0.662-0.449,0.662c-0.057,0-0.142-0.112-0.256-0.337c-0.113-0.226-0.281-0.338-0.503-0.338
	c-0.434,0-0.771,0.557-1.014,1.67c-0.243,1.116-0.488,1.872-0.736,2.274c-0.248,0.402-0.517,0.663-0.805,0.785
	c0.515,0.317,0.891,0.685,1.126,1.106c0.236,0.418,0.353,0.976,0.353,1.67c0,0.133-0.013,0.351-0.035,0.657
	c-0.022,0.303-0.035,0.53-0.035,0.676c0,0.682,0.236,1.022,0.705,1.022c0.542,0,1.229-0.59,2.061-1.771V70.419z"/>
<path fill="#141006" d="M194.938,61.077c0,0.236-0.332,0.822-0.998,1.752h-0.139c-0.104-0.048-0.169-0.228-0.194-0.538
	c-0.057-0.627-0.241-1.14-0.55-1.539c-0.309-0.399-0.682-0.599-1.115-0.599c-0.407,0-0.758,0.175-1.054,0.524
	c-0.293,0.35-0.439,0.769-0.439,1.255c0,0.351,0.093,0.73,0.28,1.135c0.186,0.405,0.671,1.045,1.45,1.924
	c0.782,0.878,1.284,1.577,1.505,2.098c0.223,0.521,0.333,1.014,0.333,1.484c0,1.083-0.399,2.038-1.197,2.863
	c-0.797,0.825-1.729,1.237-2.797,1.237c-0.885,0-1.613-0.242-2.186-0.727s-0.858-0.879-0.858-1.183c0-0.17,0.156-0.566,0.472-1.187
	c0.314-0.622,0.495-0.933,0.543-0.933c0.163,0,0.282,0.057,0.353,0.169c0.067,0.113,0.116,0.32,0.143,0.626
	c0.076,0.95,0.271,1.603,0.585,1.963c0.312,0.359,0.718,0.538,1.219,0.538c0.548,0,1.024-0.224,1.432-0.669
	c0.41-0.449,0.613-0.968,0.613-1.555c0-0.306-0.08-0.63-0.237-0.973c-0.159-0.345-0.606-0.931-1.341-1.756
	c-0.735-0.826-1.215-1.524-1.442-2.097c-0.228-0.571-0.342-1.129-0.342-1.67c0-0.945,0.303-1.811,0.907-2.604
	c0.604-0.791,1.407-1.186,2.408-1.186c0.76,0,1.39,0.206,1.893,0.616C194.689,60.46,194.938,60.803,194.938,61.077z"/>
<path d="M100.687,74.222c0.413,0.246,1.117,0.521,1.791,0.521c0.964,0,1.423-0.477,1.423-1.107c0-0.645-0.383-0.984-1.362-1.354
	c-1.347-0.492-1.974-1.215-1.974-2.106c0-1.2,0.979-2.184,2.556-2.184c0.75,0,1.408,0.2,1.806,0.461l-0.321,0.984
	c-0.291-0.185-0.826-0.446-1.516-0.446c-0.795,0-1.224,0.461-1.224,1.015c0,0.615,0.429,0.893,1.393,1.277
	c1.271,0.478,1.943,1.122,1.943,2.229c0,1.324-1.025,2.246-2.755,2.246c-0.811,0-1.561-0.215-2.081-0.523L100.687,74.222z"/>
<path d="M108.261,71.56h0.03c0.184-0.262,0.429-0.584,0.643-0.846l2.188-2.568h1.607l-2.847,3.061l3.26,4.384h-1.653l-2.54-3.568
	l-0.688,0.769v2.8h-1.332v-10.92h1.332V71.56z"/>
<path d="M119.582,73.806c0,0.646,0.031,1.277,0.107,1.784h-1.209l-0.107-0.938h-0.046c-0.413,0.584-1.209,1.107-2.265,1.107
	c-1.5,0-2.265-1.061-2.265-2.138c0-1.8,1.591-2.784,4.453-2.769v-0.154c0-0.599-0.168-1.722-1.684-1.707
	c-0.704,0-1.423,0.2-1.943,0.554l-0.307-0.908c0.612-0.384,1.516-0.646,2.449-0.646c2.265,0,2.815,1.554,2.815,3.031V73.806z
	 M118.281,71.79c-1.469-0.029-3.137,0.231-3.137,1.678c0,0.892,0.581,1.291,1.255,1.291c0.979,0,1.606-0.615,1.821-1.246
	c0.046-0.152,0.061-0.307,0.061-0.43V71.79z"/>
<path d="M121.753,70.576c0-0.954-0.03-1.723-0.062-2.43h1.194l0.076,1.277h0.03c0.536-0.908,1.424-1.431,2.633-1.431
	c1.806,0,3.152,1.522,3.152,3.769c0,2.676-1.637,3.998-3.382,3.998c-0.979,0-1.837-0.43-2.28-1.168h-0.03v4.045h-1.332V70.576z
	 M123.085,72.56c0,0.2,0.015,0.385,0.061,0.555c0.245,0.938,1.057,1.584,2.021,1.584c1.423,0,2.25-1.17,2.25-2.877
	c0-1.476-0.781-2.753-2.204-2.753c-0.918,0-1.791,0.646-2.035,1.661c-0.046,0.17-0.092,0.369-0.092,0.539V72.56z"/>
<path d="M135.661,73.806c0,0.646,0.031,1.277,0.107,1.784h-1.209l-0.107-0.938h-0.046c-0.413,0.584-1.209,1.107-2.265,1.107
	c-1.5,0-2.265-1.061-2.265-2.138c0-1.8,1.591-2.784,4.453-2.769v-0.154c0-0.599-0.168-1.722-1.684-1.707
	c-0.704,0-1.423,0.2-1.943,0.554l-0.307-0.908c0.612-0.384,1.516-0.646,2.449-0.646c2.265,0,2.815,1.554,2.815,3.031V73.806z
	 M134.36,71.79c-1.469-0.029-3.137,0.231-3.137,1.678c0,0.892,0.581,1.291,1.255,1.291c0.979,0,1.606-0.615,1.821-1.246
	c0.046-0.152,0.061-0.307,0.061-0.43V71.79z"/>
<path d="M144.214,64.669v8.998c0,0.662,0.031,1.416,0.062,1.923h-1.194l-0.061-1.292h-0.046c-0.398,0.83-1.286,1.461-2.495,1.461
	c-1.79,0-3.183-1.522-3.183-3.783c-0.016-2.477,1.53-3.984,3.32-3.984c1.148,0,1.898,0.538,2.234,1.123h0.031v-4.445H144.214z
	 M142.883,71.175c0-0.168-0.016-0.398-0.062-0.568c-0.199-0.846-0.934-1.553-1.943-1.553c-1.393,0-2.22,1.23-2.22,2.86
	c0,1.508,0.75,2.754,2.188,2.754c0.903,0,1.729-0.615,1.975-1.615c0.046-0.184,0.062-0.369,0.062-0.584V71.175z"/>
<path d="M154.906,73.806c0,0.646,0.031,1.277,0.107,1.784h-1.209l-0.107-0.938h-0.046c-0.413,0.584-1.209,1.107-2.265,1.107
	c-1.5,0-2.265-1.061-2.265-2.138c0-1.8,1.591-2.784,4.453-2.769v-0.154c0-0.599-0.168-1.722-1.684-1.707
	c-0.704,0-1.423,0.2-1.943,0.554l-0.307-0.908c0.612-0.384,1.516-0.646,2.449-0.646c2.265,0,2.815,1.554,2.815,3.031V73.806z
	 M153.605,71.79c-1.469-0.029-3.137,0.231-3.137,1.678c0,0.892,0.581,1.291,1.255,1.291c0.979,0,1.606-0.615,1.821-1.246
	c0.046-0.152,0.061-0.307,0.061-0.43V71.79z"/>
<path d="M157.476,68.146l1.454,4.168c0.244,0.692,0.443,1.308,0.597,1.923h0.046c0.168-0.615,0.383-1.23,0.627-1.923l1.439-4.168
	h1.407l-2.907,7.444h-1.286l-2.815-7.444H157.476z"/>
<path d="M164.374,69.376c0-0.569,0.382-0.969,0.902-0.969c0.551,0,0.903,0.4,0.903,0.969c0,0.539-0.353,0.954-0.918,0.954
	C164.741,70.33,164.374,69.915,164.374,69.376z M164.374,74.806c0-0.569,0.382-0.969,0.902-0.969c0.551,0,0.903,0.399,0.903,0.969
	c0,0.538-0.353,0.953-0.918,0.953C164.741,75.759,164.374,75.344,164.374,74.806z"/>
<path d="M98.198,27.343h3.525v8.307h0.122c0.729-0.665,1.459-1.278,2.147-1.84l8.35-6.466h4.377l-9.889,7.31l10.658,9.917h-4.174
	l-8.957-8.46l-2.635,1.892v6.568h-3.525V27.343z"/>
<path d="M119.72,41.861c1.58,0.639,3.85,1.125,6.281,1.125c3.607,0,5.715-1.201,5.715-2.939c0-1.584-1.459-2.53-5.147-3.399
	c-4.458-1.022-7.214-2.504-7.214-4.907c0-2.684,3.525-4.677,8.835-4.677c2.756,0,4.823,0.409,5.998,0.843l-0.973,1.814
	c-0.851-0.332-2.675-0.818-5.147-0.818c-3.729,0-5.146,1.406-5.146,2.582c0,1.61,1.662,2.402,5.431,3.323
	c4.62,1.125,6.931,2.53,6.931,5.061c0,2.658-3.08,4.984-9.524,4.984c-2.634,0-5.512-0.511-6.971-1.125L119.72,41.861z"/>
<path d="M151.736,44.57l-6.931-17.227h3.729l3.242,8.716c0.811,2.146,1.541,4.293,2.027,5.955h0.08
	c0.446-1.712,1.297-3.757,2.229-5.981l3.647-8.69h3.688l3.324,8.741c0.77,2.044,1.499,4.089,1.904,5.904h0.081
	c0.567-1.891,1.337-3.808,2.188-5.955l3.607-8.69h3.606l-7.741,17.227h-3.688l-3.445-8.971c-0.851-2.198-1.418-3.885-1.783-5.623
	h-0.08c-0.446,1.712-1.095,3.399-2.107,5.623l-3.891,8.971H151.736z"/>
<path d="M182.093,38.793c0.081,3.042,3.121,4.294,6.728,4.294c2.554,0,4.134-0.281,5.431-0.639l0.648,1.61
	c-1.256,0.358-3.445,0.792-6.565,0.792c-6.038,0-9.646-2.53-9.646-6.262c0-3.732,3.485-6.646,9.199-6.646
	c6.444,0,8.105,3.527,8.105,5.802c0,0.46-0.04,0.792-0.121,1.048H182.093z M192.549,37.184c0.04-1.406-0.933-3.629-4.944-3.629
	c-3.647,0-5.188,2.07-5.471,3.629H192.549z"/>
<path d="M200.411,26.423h3.526v7.77h0.081c1.256-1.38,3.525-2.249,6.688-2.249c4.903,0,8.308,2.556,8.308,6.288
	c0,4.421-4.458,6.62-8.835,6.62c-2.837,0-5.106-0.69-6.605-2.3h-0.082l-0.202,2.019h-3.04c0.082-0.843,0.162-2.096,0.162-3.195
	V26.423z M203.938,39.611c0,0.281,0.04,0.563,0.162,0.818c0.648,1.559,2.756,2.633,5.35,2.633c3.769,0,5.958-1.917,5.958-4.754
	c0-2.479-2.027-4.601-5.877-4.601c-2.391,0-4.66,1.073-5.391,2.76c-0.121,0.281-0.202,0.588-0.202,0.946V39.611z"/>
<path d="M223.472,26.423h3.526v7.77h0.081c1.256-1.38,3.525-2.249,6.688-2.249c4.903,0,8.308,2.556,8.308,6.288
	c0,4.421-4.458,6.62-8.835,6.62c-2.837,0-5.106-0.69-6.605-2.3h-0.082l-0.202,2.019h-3.04c0.082-0.843,0.162-2.096,0.162-3.195
	V26.423z M226.998,39.611c0,0.281,0.04,0.563,0.162,0.818c0.648,1.559,2.756,2.633,5.35,2.633c3.769,0,5.958-1.917,5.958-4.754
	c0-2.479-2.027-4.601-5.877-4.601c-2.391,0-4.66,1.073-5.391,2.76c-0.121,0.281-0.202,0.588-0.202,0.946V39.611z"/>
<text transform="matrix(0.9906 -0.137 0.137 0.9906 97.3311 48.9326)" display="none" font-family="'Calibri'" font-size="34.4212">KS Systems</text>
<text id="LMBK_Gräsklippningslogg_1_" transform="matrix(0.6196 0 0 1 92.3311 49.3755)" display="none" font-family="'Calibri'" font-size="25.2637">LMBK - Gräsklippningslogg </text>
<text id="Ronda_1_" transform="matrix(1.5613 0 0 1 95.0781 49.709)" display="none" font-family="'Calibri'" font-size="25.2637">Ronda</text>
<text transform="matrix(1.462 0 0 1 98.2529 44.5698)" display="none" font-family="'MyriadPro-Regular'" font-size="28.1647">DynLink</text>
<line stroke="#000000" stroke-width="2" stroke-miterlimit="10" x1="95.118" y1="18.412" x2="61.928" y2="87.408"/>
<line fill="none" stroke="#000000" stroke-width="2" stroke-miterlimit="10" x1="78.494" y1="52.97" x2="271.086" y2="52.97"/>
<path fill="#27AAE1" d="M8.623,73.55c-0.142,0.586-0.25,1.167-0.241,1.533l-2.104-0.509l0.012-0.658l-0.046-0.011
	c-0.612,0.378-1.445,0.459-2.336,0.243c-1.521-0.367-2.206-1.504-1.965-2.498c0.391-1.618,2.328-1.958,4.986-1.316l0.019-0.076
	c0.083-0.345-0.018-0.867-1.17-1.146c-0.769-0.186-1.635-0.167-2.189-0.03L3.46,67.729c0.581-0.116,1.688-0.186,3.056,0.146
	c2.504,0.605,2.992,2.019,2.635,3.497L8.623,73.55z M6.712,71.564c-1.229-0.298-2.239-0.286-2.418,0.453
	c-0.12,0.496,0.22,0.835,0.743,0.961c0.568,0.138,1.136-0.062,1.386-0.419c0.055-0.095,0.097-0.206,0.125-0.32L6.712,71.564z"/>
<path fill="#27AAE1" d="M11.121,71.363c0.197-0.817,0.333-1.512,0.445-2.106l2.027,0.491l-0.102,0.893l0.031,0.007
	c0.71-0.516,1.657-0.664,2.749-0.4c1.644,0.398,2.831,1.941,2.351,3.927c-0.549,2.268-2.543,2.918-4.219,2.513
	c-0.906-0.219-1.539-0.695-1.778-1.186l-0.03-0.007l-0.749,3.096l-2.336-0.565L11.121,71.363z M13.102,73.393
	c-0.037,0.153-0.053,0.284-0.053,0.419c0.027,0.56,0.469,1.085,1.145,1.248c1.015,0.246,1.783-0.311,2.039-1.368
	c0.24-0.993-0.116-1.875-1.16-2.127c-0.661-0.16-1.344,0.105-1.636,0.643c-0.056,0.094-0.101,0.218-0.129,0.332L13.102,73.393z"/>
<path fill="#27AAE1" d="M20.309,73.586c0.197-0.815,0.333-1.511,0.445-2.104l2.027,0.49l-0.101,0.893l0.03,0.008
	c0.711-0.517,1.657-0.665,2.749-0.4c1.645,0.397,2.832,1.939,2.352,3.927c-0.549,2.268-2.544,2.918-4.219,2.512
	c-0.906-0.219-1.54-0.695-1.779-1.186l-0.03-0.007l-0.749,3.096l-2.336-0.565L20.309,73.586z M22.291,75.615
	c-0.037,0.153-0.052,0.284-0.053,0.419c0.027,0.56,0.47,1.085,1.146,1.249c1.015,0.245,1.783-0.312,2.039-1.368
	c0.24-0.994-0.116-1.876-1.16-2.128c-0.661-0.16-1.345,0.106-1.637,0.643c-0.055,0.094-0.101,0.218-0.129,0.332L22.291,75.615z"/>
<path fill="#939598" d="M28.055,78.75c0.169-0.701,0.856-1.048,1.67-0.851c0.799,0.193,1.238,0.798,1.081,1.516
	c-0.164,0.675-0.837,1.038-1.682,0.834C28.341,80.06,27.892,79.425,28.055,78.75z"/>
<path fill="#662D91" d="M39.303,81.605c-0.29,1.197-0.818,2.107-1.831,2.524c-0.956,0.389-2.121,0.296-3.227,0.028
	c-0.998-0.242-1.988-0.656-2.59-1.126l0.818-1.366c0.421,0.345,1.176,0.783,2.068,0.999c1.106,0.268,2.068-0.012,2.349-1.171
	l0.096-0.396l-0.03-0.007c-0.57,0.401-1.361,0.52-2.223,0.312c-1.859-0.449-2.878-2.018-2.447-3.802
	c0.487-2.013,2.347-2.911,4.207-2.461c1.029,0.249,1.585,0.774,1.843,1.39l0.031,0.007l0.258-0.732l2.028,0.49
	c-0.129,0.4-0.287,0.915-0.512,1.846L39.303,81.605z M37.643,78.25c0.028-0.114,0.044-0.245,0.041-0.367
	c-0.046-0.551-0.408-1.002-1.053-1.158c-0.861-0.209-1.691,0.265-1.966,1.398c-0.225,0.93,0.153,1.791,1.121,2.025
	c0.614,0.148,1.171-0.068,1.432-0.477c0.099-0.139,0.164-0.338,0.204-0.504L37.643,78.25z"/>
<path fill="#662D91" d="M43.362,80.902c-0.133,0.816,0.743,1.434,1.833,1.697c0.8,0.193,1.466,0.26,2.14,0.234l-0.011,1.386
	c-0.833,0.082-1.801-0.018-2.815-0.263c-2.551-0.617-3.714-2.193-3.243-4.143c0.382-1.579,1.988-3.038,4.6-2.406
	c2.428,0.587,2.97,2.377,2.598,3.918c-0.081,0.332-0.197,0.613-0.262,0.746L43.362,80.902z M46.433,80.242
	c0.114-0.471,0.059-1.32-1.016-1.581c-0.983-0.237-1.565,0.417-1.75,0.912L46.433,80.242z"/>
<path fill="#662D91" d="M53.599,77.646l-0.407,1.682l1.676,0.405l-0.345,1.427l-1.676-0.404l-0.545,2.254
	c-0.182,0.752-0.035,1.152,0.658,1.319c0.322,0.078,0.479,0.103,0.703,0.116l-0.338,1.469c-0.313,0.019-0.9-0.043-1.546-0.198
	c-0.752-0.183-1.331-0.552-1.637-0.963c-0.342-0.474-0.412-1.124-0.199-2.003l0.616-2.549l-0.999-0.241l0.345-1.427l0.999,0.241
	l0.28-1.159L53.599,77.646z"/>
<path fill="#ED1C24" d="M6.138,57.249c-0.333,0.172-0.96,0.304-1.675,0.304c-1.946,0-3.189-1.283-3.189-3.307
	c0-1.892,1.207-3.44,3.448-3.44c0.493,0,1.035,0.093,1.429,0.251l-0.295,1.495c-0.222-0.106-0.554-0.199-1.047-0.199
	c-0.985,0-1.625,0.754-1.613,1.813c0,1.177,0.739,1.813,1.65,1.813c0.443,0,0.788-0.08,1.071-0.212L6.138,57.249z"/>
<path fill="#ED1C24" d="M12.984,54.114c0,2.368-1.564,3.453-3.177,3.453c-1.761,0-3.116-1.244-3.116-3.334
	c0-2.104,1.281-3.439,3.227-3.439C11.753,50.793,12.984,52.156,12.984,54.114z M8.625,54.18c0,1.111,0.431,1.945,1.231,1.945
	c0.739,0,1.195-0.781,1.195-1.958c0-0.953-0.345-1.932-1.195-1.932C8.97,52.235,8.625,53.227,8.625,54.18z"/>
<path fill="#ED1C24" d="M14.142,53.016c0-0.807-0.024-1.482-0.049-2.064h1.625l0.086,0.9h0.037c0.246-0.423,0.85-1.045,1.859-1.045
	c1.231,0,2.155,0.886,2.155,2.792v3.823h-1.872v-3.585c0-0.833-0.271-1.402-0.948-1.402c-0.517,0-0.825,0.383-0.96,0.754
	c-0.049,0.132-0.062,0.317-0.062,0.503v3.73h-1.872V53.016z"/>
<path fill="#ED1C24" d="M21.345,55.675c0.345,0.225,1.059,0.476,1.613,0.476c0.566,0,0.8-0.198,0.8-0.529
	c0-0.344-0.185-0.502-0.875-0.754c-1.256-0.45-1.736-1.177-1.724-1.945c0-1.217,0.96-2.13,2.45-2.13
	c0.702,0,1.318,0.185,1.687,0.384l-0.32,1.389c-0.271-0.159-0.801-0.371-1.306-0.371c-0.456,0-0.714,0.198-0.714,0.516
	c0,0.317,0.234,0.476,0.973,0.754c1.145,0.423,1.613,1.058,1.625,1.998c0,1.217-0.875,2.104-2.598,2.104
	c-0.788,0-1.49-0.198-1.946-0.463L21.345,55.675z"/>
<path fill="#ED1C24" d="M28.795,49.206v1.746h1.342v1.482h-1.342v2.341c0,0.781,0.185,1.138,0.739,1.138
	c0.258,0,0.381-0.013,0.554-0.053l0.013,1.521c-0.234,0.092-0.69,0.172-1.207,0.172c-0.603,0-1.108-0.225-1.416-0.556
	c-0.345-0.384-0.517-1.005-0.517-1.918v-2.646h-0.8v-1.482h0.8v-1.204L28.795,49.206z"/>
<path fill="#939598" d="M30.986,56.349c0-0.728,0.456-1.23,1.108-1.23c0.64,0,1.083,0.489,1.096,1.23
	c0,0.701-0.443,1.217-1.121,1.217C31.442,57.566,30.986,57.05,30.986,56.349z"/>
<path fill="#662D91" d="M35.764,54.828c0.049,0.833,0.825,1.23,1.699,1.23c0.64,0,1.158-0.092,1.663-0.278l0.246,1.363
	c-0.616,0.278-1.367,0.41-2.18,0.41c-2.044,0-3.214-1.27-3.214-3.294c0-1.641,0.948-3.453,3.042-3.453
	c1.946,0,2.685,1.627,2.685,3.228c0,0.344-0.037,0.648-0.062,0.794H35.764z M37.968,53.452c0-0.49-0.197-1.31-1.059-1.31
	c-0.788,0-1.108,0.78-1.157,1.31H37.968z"/>
<path fill="#662D91" d="M42.105,50.952l0.591,1.085c0.172,0.331,0.333,0.648,0.493,0.966h0.024c0.16-0.357,0.308-0.675,0.468-0.992
	l0.529-1.059h2.032l-1.982,3.083l2.007,3.387h-2.118l-0.604-1.164c-0.172-0.317-0.32-0.648-0.468-0.979h-0.037
	c-0.147,0.344-0.308,0.662-0.456,0.979l-0.566,1.164h-2.056l2.044-3.294l-1.995-3.175H42.105z"/>
<path fill="#662D91" d="M47.067,53.122c0-0.847-0.024-1.562-0.049-2.17h1.625l0.086,0.9h0.024c0.443-0.675,1.133-1.045,2.007-1.045
	c1.317,0,2.5,1.23,2.5,3.294c0,2.355-1.391,3.466-2.733,3.466c-0.727,0-1.293-0.317-1.564-0.741h-0.024v3.215h-1.872V53.122z
	 M48.939,54.643c0,0.159,0.012,0.291,0.037,0.423c0.123,0.542,0.554,0.953,1.096,0.953c0.813,0,1.293-0.728,1.293-1.826
	c0-1.032-0.431-1.813-1.269-1.813c-0.529,0-0.998,0.423-1.121,1.019c-0.024,0.105-0.037,0.238-0.037,0.357V54.643z"/>
<path fill="#662D91" d="M54.431,53.082c0-0.953-0.012-1.574-0.049-2.13h1.601l0.074,1.191h0.049c0.308-0.953,1.034-1.35,1.625-1.35
	c0.172,0,0.259,0.013,0.394,0.04v1.892c-0.148-0.026-0.295-0.053-0.505-0.053c-0.689,0-1.158,0.397-1.281,1.019
	c-0.024,0.132-0.037,0.291-0.037,0.45v3.281h-1.872V53.082z"/>
<path fill="#662D91" d="M60.452,54.828c0.049,0.833,0.825,1.23,1.699,1.23c0.64,0,1.158-0.092,1.663-0.278l0.246,1.363
	c-0.616,0.278-1.367,0.41-2.18,0.41c-2.044,0-3.214-1.27-3.214-3.294c0-1.641,0.948-3.453,3.042-3.453
	c1.946,0,2.685,1.627,2.685,3.228c0,0.344-0.037,0.648-0.062,0.794H60.452z M62.656,53.452c0-0.49-0.197-1.31-1.059-1.31
	c-0.788,0-1.108,0.78-1.157,1.31H62.656z"/>
<path fill="#662D91" d="M65.5,55.675c0.345,0.225,1.059,0.476,1.613,0.476c0.566,0,0.8-0.198,0.8-0.529
	c0-0.344-0.185-0.502-0.875-0.754c-1.256-0.45-1.736-1.177-1.724-1.945c0-1.217,0.96-2.13,2.45-2.13
	c0.702,0,1.318,0.185,1.687,0.384l-0.32,1.389c-0.271-0.159-0.801-0.371-1.306-0.371c-0.456,0-0.714,0.198-0.714,0.516
	c0,0.317,0.234,0.476,0.973,0.754c1.145,0.423,1.613,1.058,1.625,1.998c0,1.217-0.875,2.104-2.598,2.104
	c-0.788,0-1.49-0.198-1.946-0.463L65.5,55.675z"/>
<path fill="#662D91" d="M70.844,55.675c0.345,0.225,1.059,0.476,1.614,0.476c0.566,0,0.801-0.198,0.801-0.529
	c0-0.344-0.186-0.502-0.875-0.754c-1.256-0.45-1.736-1.177-1.724-1.945c0-1.217,0.96-2.13,2.451-2.13
	c0.702,0,1.317,0.185,1.688,0.384l-0.32,1.389c-0.271-0.159-0.801-0.371-1.306-0.371c-0.455,0-0.714,0.198-0.714,0.516
	c0,0.317,0.233,0.476,0.973,0.754c1.146,0.423,1.613,1.058,1.625,1.998c0,1.217-0.874,2.104-2.598,2.104
	c-0.788,0-1.491-0.198-1.946-0.463L70.844,55.675z"/>
<path fill="#ED1C24" d="M2.063,40.339l-0.725-5.242L0.52,35.21l-0.215-1.558l0.818-0.113l-0.037-0.264
	c-0.114-0.821-0.012-1.756,0.453-2.387c0.422-0.569,1.052-0.839,1.618-0.918c0.416-0.057,0.752-0.033,1.026-0.001l0.149,1.638
	c-0.171-0.032-0.378-0.046-0.63-0.011c-0.629,0.087-0.819,0.666-0.727,1.333l0.048,0.348l1.234-0.171l0.215,1.558l-1.221,0.169
	l0.725,5.242L2.063,40.339z"/>
<path fill="#ED1C24" d="M11.632,36.791c0.123,0.891,0.249,1.611,0.353,2.177l-1.662,0.229l-0.221-0.948l-0.038,0.005
	c-0.182,0.45-0.665,1.227-1.772,1.379c-1.259,0.174-2.285-0.563-2.575-2.663l-0.551-3.99l1.914-0.265l0.505,3.657
	c0.137,0.987,0.508,1.545,1.188,1.451c0.529-0.073,0.788-0.52,0.854-0.87c0.033-0.131,0.038-0.288,0.013-0.468l-0.559-4.047
	l1.913-0.265L11.632,36.791z"/>
<path fill="#ED1C24" d="M12.83,34.131c-0.117-0.849-0.241-1.554-0.35-2.162l1.662-0.229l0.218,0.933l0.038-0.005
	c0.19-0.48,0.717-1.219,1.75-1.361c1.259-0.174,2.332,0.628,2.609,2.63l0.556,4.019l-1.914,0.265l-0.521-3.769
	c-0.121-0.876-0.481-1.436-1.173-1.34c-0.529,0.073-0.788,0.52-0.873,0.928c-0.031,0.147-0.017,0.343,0.01,0.537l0.542,3.922
	l-1.914,0.265L12.83,34.131z"/>
<path fill="#ED1C24" d="M25.444,36.922c-0.315,0.228-0.938,0.456-1.668,0.557c-1.989,0.275-3.447-0.898-3.741-3.026
	c-0.275-1.988,0.734-3.786,3.025-4.103c0.503-0.07,1.071-0.049,1.497,0.063l-0.085,1.613c-0.242-0.08-0.596-0.131-1.099-0.062
	c-1.007,0.14-1.552,1.023-1.386,2.134c0.171,1.237,1.02,1.801,1.951,1.672c0.453-0.063,0.794-0.194,1.064-0.374L25.444,36.922z"/>
<path fill="#ED1C24" d="M27.674,27.997l0.254,1.836l1.373-0.19l0.215,1.558l-1.373,0.19l0.34,2.461
	c0.113,0.82,0.354,1.169,0.92,1.091c0.265-0.037,0.388-0.066,0.559-0.133l0.234,1.597c-0.226,0.131-0.68,0.279-1.209,0.353
	c-0.616,0.085-1.166-0.081-1.528-0.385c-0.408-0.355-0.675-0.983-0.808-1.943l-0.384-2.781l-0.818,0.113l-0.215-1.558l0.818-0.113
	l-0.175-1.266L27.674,27.997z"/>
<path fill="#ED1C24" d="M32.123,27.326c0.081,0.583-0.245,1.11-0.887,1.199c-0.604,0.083-1.06-0.335-1.141-0.918
	c-0.083-0.599,0.257-1.113,0.874-1.199C31.586,26.323,32.028,26.729,32.123,27.326z M31.348,36.29l-0.94-6.8l1.914-0.265l0.94,6.8
	L31.348,36.29z"/>
<path fill="#ED1C24" d="M40.398,31.496c0.344,2.489-1.098,3.851-2.747,4.079c-1.801,0.249-3.366-0.867-3.67-3.063
	c-0.306-2.212,0.809-3.797,2.799-4.072C38.656,28.18,40.114,29.438,40.398,31.496z M35.95,32.181
	c0.162,1.169,0.724,1.983,1.542,1.87c0.755-0.104,1.108-0.989,0.937-2.227c-0.138-1.001-0.633-1.981-1.502-1.861
	C36.021,30.088,35.812,31.18,35.95,32.181z"/>
<path fill="#ED1C24" d="M41.422,30.178c-0.118-0.849-0.241-1.554-0.35-2.162l1.662-0.229l0.218,0.933l0.038-0.005
	c0.19-0.48,0.717-1.219,1.75-1.361c1.259-0.174,2.332,0.628,2.609,2.63l0.556,4.019l-1.914,0.265l-0.521-3.769
	c-0.121-0.876-0.481-1.436-1.173-1.34c-0.529,0.073-0.788,0.52-0.873,0.928c-0.031,0.147-0.017,0.343,0.01,0.537l0.542,3.922
	l-1.914,0.265L41.422,30.178z"/>
<path fill="#939598" d="M49.146,32.682c-0.105-0.766,0.287-1.357,0.954-1.45c0.655-0.09,1.18,0.361,1.3,1.138
	c0.102,0.737-0.277,1.342-0.969,1.438C49.789,33.896,49.249,33.419,49.146,32.682z"/>
<path fill="#662D91" d="M52.083,28.774c-0.139-1.001-0.242-1.652-0.36-2.231l1.637-0.226l0.249,1.24l0.05-0.007
	c0.176-1.044,0.861-1.564,1.465-1.647c0.177-0.024,0.267-0.023,0.409-0.015l0.275,1.989c-0.155-0.008-0.31-0.014-0.523,0.016
	c-0.706,0.097-1.125,0.582-1.161,1.251c-0.006,0.144,0.004,0.311,0.027,0.479l0.477,3.448l-1.914,0.265L52.083,28.774z"/>
<path fill="#662D91" d="M58.494,29.759c0.171,0.869,1.022,1.176,1.916,1.053c0.655-0.091,1.17-0.261,1.66-0.526l0.45,1.397
	c-0.589,0.379-1.338,0.625-2.168,0.74c-2.091,0.289-3.471-0.88-3.765-3.009c-0.238-1.724,0.467-3.763,2.608-4.059
	c1.989-0.275,2.982,1.332,3.214,3.014c0.05,0.361,0.056,0.686,0.052,0.843L58.494,29.759z M60.547,28.002
	c-0.071-0.515-0.392-1.351-1.273-1.229c-0.806,0.111-1.02,0.977-0.993,1.542L60.547,28.002z"/>
<path fill="#662D91" d="M63.405,27.138c-0.118-0.849-0.24-1.554-0.35-2.162l1.662-0.23l0.218,0.933l0.038-0.005
	c0.191-0.48,0.717-1.218,1.75-1.361c1.259-0.174,2.332,0.628,2.609,2.63l0.556,4.019l-1.913,0.265l-0.521-3.769
	c-0.121-0.876-0.481-1.435-1.173-1.339c-0.529,0.073-0.788,0.52-0.873,0.928c-0.031,0.146-0.017,0.342,0.01,0.537l0.542,3.922
	l-1.914,0.265L63.405,27.138z"/>
<path fill="#662D91" d="M76.026,20.051l1.084,7.843c0.105,0.765,0.243,1.567,0.331,2.023l-1.699,0.235l-0.213-0.977l-0.037,0.005
	c-0.274,0.803-0.976,1.297-1.769,1.407c-1.461,0.202-2.822-1.013-3.114-3.127c-0.33-2.292,0.782-3.806,2.256-4.01
	c0.768-0.106,1.389,0.12,1.729,0.54l0.025-0.003l-0.508-3.671L76.026,20.051z M74.936,26.267c-0.016-0.111-0.037-0.264-0.079-0.385
	c-0.19-0.541-0.671-0.956-1.263-0.874c-0.882,0.122-1.203,1.045-1.055,2.115c0.159,1.154,0.775,1.807,1.568,1.697
	c0.554-0.076,0.95-0.556,0.98-1.17c0.004-0.157-0.006-0.325-0.029-0.492L74.936,26.267z"/>
<path fill="#662D91" d="M80.023,26.783c0.172,0.869,1.022,1.176,1.916,1.053c0.655-0.091,1.17-0.261,1.66-0.526l0.449,1.397
	c-0.59,0.379-1.338,0.625-2.169,0.74c-2.09,0.289-3.471-0.881-3.766-3.01c-0.238-1.724,0.468-3.763,2.609-4.059
	c1.989-0.275,2.98,1.332,3.214,3.014c0.05,0.361,0.056,0.686,0.052,0.842L80.023,26.783z M82.077,25.025
	c-0.071-0.515-0.392-1.35-1.273-1.228c-0.806,0.111-1.02,0.977-0.993,1.542L82.077,25.025z"/>
<path fill="#662D91" d="M84.944,24.231c-0.139-1.001-0.242-1.652-0.36-2.231l1.637-0.226l0.248,1.241l0.051-0.007
	c0.177-1.045,0.862-1.564,1.466-1.648c0.177-0.024,0.267-0.023,0.409-0.015l0.274,1.989c-0.154-0.007-0.31-0.014-0.523,0.016
	c-0.705,0.098-1.126,0.582-1.161,1.251c-0.006,0.143,0.005,0.311,0.027,0.479l0.477,3.448l-1.914,0.265L84.944,24.231z"/>
<text transform="matrix(1.0645 0 0 1 0 44.5698)" display="none"><tspan x="0" y="0" display="inline" fill="#008ACC" font-family="'MyriadPro-Bold'" font-size="27.1677">&lt;?php</tspan><tspan x="0" y="32.601" display="inline" fill="#008ACC" font-family="'MyriadPro-Bold'" font-size="27.1677">?&gt;</tspan></text>
</svg>
